<?xml version="1.0" standalone="no"?>
<!DOCTYPE svg PUBLIC "-//W3C//DTD SVG 20010904//EN"
 "http://www.w3.org/TR/2001/REC-SVG-20010904/DTD/svg10.dtd">
<svg version="1.0" xmlns="http://www.w3.org/2000/svg"
 width="960.000000pt" height="960.000000pt" viewBox="0 0 960.000000 960.000000"
 preserveAspectRatio="xMidYMid meet">
<metadata>
Created by potrace 1.14, written by Peter Selinger 2001-2017
</metadata>
<g transform="translate(0.000000,960.000000) scale(0.100000,-0.100000)"
fill="#000000" stroke="none">
<path d="M5530 9589 c-19 -5 -48 -11 -65 -14 -16 -3 -48 -11 -70 -16 -22 -6
-47 -12 -55 -14 -8 -2 -58 -15 -110 -30 -52 -15 -111 -31 -130 -36 -41 -11
-50 -14 -70 -21 -8 -3 -42 -14 -75 -23 -33 -10 -64 -20 -70 -24 -5 -3 -12 -6
-15 -7 -21 -4 -67 -18 -75 -23 -5 -3 -12 -6 -15 -7 -6 -1 -24 -8 -100 -37 -30
-12 -57 -22 -60 -23 -14 -3 -215 -88 -305 -129 -259 -119 -557 -284 -767 -426
-49 -32 -92 -59 -97 -59 -5 0 -11 -4 -13 -8 -1 -4 -58 -47 -125 -95 -67 -49
-127 -94 -133 -102 -7 -8 -16 -15 -21 -15 -5 0 -17 -8 -27 -17 -11 -10 -30
-27 -43 -38 -207 -171 -283 -239 -454 -411 -186 -186 -230 -233 -334 -359
-117 -140 -133 -160 -201 -250 -33 -44 -65 -86 -70 -93 -6 -7 -58 -83 -116
-170 -57 -86 -109 -162 -114 -169 -6 -7 -10 -14 -10 -17 0 -2 -22 -41 -50 -86
-27 -45 -50 -83 -50 -85 0 -2 -14 -28 -31 -57 -59 -99 -167 -316 -162 -322 4
-3 1 -6 -5 -6 -7 0 -12 -4 -12 -9 0 -5 -15 -42 -34 -83 -51 -111 -109 -250
-106 -256 0 -1 -6 -15 -14 -30 -7 -15 -25 -58 -39 -97 -14 -38 -28 -79 -33
-90 -4 -11 -8 -22 -9 -25 -1 -3 -5 -12 -8 -20 -11 -25 -108 -343 -113 -370 -3
-14 -14 -55 -24 -93 -10 -37 -19 -71 -20 -75 0 -4 -5 -23 -10 -42 -5 -19 -12
-48 -14 -65 -3 -16 -8 -41 -11 -55 -6 -25 -32 -157 -39 -195 -2 -11 -7 -42
-10 -68 -4 -27 -10 -59 -12 -70 -4 -21 -12 -76 -19 -147 -2 -19 -6 -55 -9 -80
-8 -61 -15 -129 -23 -230 -8 -104 -9 -664 0 -740 3 -30 9 -80 12 -110 3 -30 8
-71 11 -90 4 -19 8 -51 9 -70 2 -19 4 -35 5 -35 2 0 7 -24 15 -75 4 -24 8 -47
10 -50 2 -3 6 -23 9 -45 4 -22 11 -58 17 -80 6 -22 13 -48 15 -57 2 -10 6 -27
9 -38 3 -11 7 -28 9 -37 3 -10 18 -63 36 -118 17 -55 32 -107 35 -115 2 -8 13
-40 25 -70 12 -30 25 -68 30 -83 5 -16 14 -35 21 -43 6 -8 8 -14 4 -14 -4 0
-3 -6 3 -12 6 -7 11 -17 12 -23 2 -16 27 -69 96 -212 35 -72 64 -136 64 -142
0 -6 3 -11 8 -11 4 0 25 -34 47 -75 22 -41 43 -75 47 -75 5 0 8 -5 8 -11 0
-17 217 -341 240 -359 4 -3 26 -30 49 -60 71 -90 149 -177 266 -296 127 -128
248 -237 330 -299 22 -16 46 -35 53 -42 60 -59 471 -323 563 -363 13 -5 31
-14 39 -20 40 -26 365 -170 385 -170 5 0 23 -7 38 -15 62 -32 347 -115 562
-163 48 -11 61 -14 149 -27 21 -4 48 -9 60 -11 11 -2 41 -6 66 -9 25 -3 59 -8
75 -10 123 -19 588 -27 750 -12 122 10 177 16 213 22 17 3 49 8 70 11 70 10
87 13 187 34 55 11 152 34 215 51 63 17 120 32 125 33 6 1 15 4 20 7 8 5 54
19 75 23 17 4 196 71 200 75 3 3 14 8 25 9 11 2 24 8 30 13 5 5 16 9 24 9 38
0 470 227 617 324 21 15 48 32 58 39 61 39 253 182 263 196 7 9 13 13 13 9 0
-4 10 3 23 15 12 12 52 47 87 77 80 68 309 296 370 369 25 29 50 58 55 65 6 6
33 40 60 76 28 36 53 67 57 70 14 11 228 329 242 360 3 8 20 38 37 65 62 103
204 398 200 418 0 4 3 7 9 7 6 0 9 3 8 8 -1 4 3 18 9 32 26 64 83 221 86 237
1 10 5 23 9 28 3 6 14 37 23 70 9 33 23 85 32 115 8 30 16 62 18 70 2 8 10 44
19 80 8 36 18 81 21 100 3 19 8 42 10 50 2 8 6 31 9 50 3 19 7 44 10 55 2 11
7 47 10 80 4 33 9 71 11 85 26 144 26 766 1 905 -2 11 -7 49 -11 85 -8 66 -12
95 -15 95 -1 0 -3 16 -6 35 -2 19 -9 60 -16 90 -6 30 -12 62 -13 70 -8 51 -75
302 -103 380 -11 30 -20 57 -20 60 -1 8 -13 40 -38 103 -12 31 -20 57 -17 57
3 0 0 7 -7 15 -7 8 -9 15 -5 15 4 0 1 7 -6 16 -7 9 -14 21 -15 28 -1 6 -14 37
-28 69 -14 31 -27 60 -28 65 -3 13 -141 277 -165 314 -12 21 -23 42 -23 48 0
5 -4 10 -10 10 -5 0 -10 5 -10 11 0 11 -136 219 -150 229 -3 3 -21 26 -38 52
-18 25 -38 52 -44 60 -7 7 -31 36 -53 63 -65 81 -149 175 -275 304 -81 84
-116 125 -148 176 -14 22 -28 42 -31 45 -11 8 -78 151 -100 210 -50 139 -66
237 -65 405 0 161 18 269 63 384 30 73 28 77 -26 81 -162 10 -291 -3 -448 -44
-43 -12 -164 -63 -200 -85 -22 -13 -42 -24 -45 -24 -6 1 -109 -66 -135 -89
-11 -9 -31 -26 -44 -37 -13 -12 -27 -21 -30 -21 -13 1 -49 39 -114 120 -37 47
-79 98 -92 115 -14 16 -25 35 -25 41 0 7 -3 14 -8 16 -13 5 -72 91 -72 105 0
7 -5 13 -10 13 -6 0 -15 10 -20 23 -6 12 -19 36 -30 52 -19 30 -161 313 -185
370 -53 123 -135 381 -151 475 -3 14 -11 57 -19 95 -7 39 -17 93 -20 120 -4
28 -9 61 -11 75 -8 46 -15 139 -19 232 -2 51 -4 99 -4 106 -1 13 -2 13 -51 1z"/>
</g>
</svg>
