<svg id="Layer_1" data-name="Layer 1" xmlns="http://www.w3.org/2000/svg" viewBox="0 0 300 257.54"><defs><style>.cls-1,.cls-3{fill:#f63;}.cls-2,.cls-4{fill:#003ffc;}.cls-2,.cls-3{stroke:#000;stroke-miterlimit:10;stroke-width:0.25px;}</style></defs><g id="Layer_1-2" data-name="Layer 1-2"><g id="MAN"><g id="SHADOW"><path d="M95,163.19c23.37-6.21,79.47-4.64,101,.22,5.1,1.15,4.34-1.19,0-2.19-27.07-6.27-81.5-4.93-101.54-.07-6.51,1.58-5.29,3.57.48,2Z" transform="translate(0 -21.21)"/><path d="M129.1,191.66c9-6,20.33-5.54,31.51.18,1.49.78,4.06-.34,0-2.18-10.65-4.89-21.29-6.48-32,0C124.61,192,126.61,193.34,129.1,191.66Z" transform="translate(0 -21.21)"/><path d="M96.56,167.31c23.32-7,75.64-5,97.39-.26,4.38,1,4.57-1,0-2.18-25.35-6.44-76.49-5.52-97.92.41-4.45,1.23-5.15,3.31.49,2Z" transform="translate(0 -21.21)"/><path d="M100.46,170.46c23.32-7,68.17-4.64,89.92.09,4.38.95,4.57-1,0-2.19-25.35-6.44-69-5.85-90.45.07-4.45,1.23-5.15,3.32.49,2Z" transform="translate(0 -21.21)"/><path d="M104.54,173.34c23.32-7,60.3-4.29,82,.43,4.38.95,5.08-1,0-2.19-25.43-6.16-61.15-6.2-82.58-.28C99.6,172.54,98.9,174.62,104.54,173.34Z" transform="translate(0 -21.21)"/><path d="M95.11,192.1c13.76-.84,30.75-18.78,49.05-18.75,21,0,40,20,52,19,5.21-.44,4.46-2.15,0-2.19-14.14-.12-32.37-19.09-52-18.9-19.33.18-38.71,18.78-49.54,18.83-6.69,0-5.47,2.4.49,2Z" transform="translate(0 -21.21)"/><path d="M123.28,180.64c-10.82,5.5-20.26,12.69-27,12.72s-5.47,2.4.49,2c8.36-.51,17.35-7.34,27.21-12.62A2.16,2.16,0,0,1,123.28,180.64Z" transform="translate(0 -21.21)"/><path d="M195.69,194c-8.33-.06-17.87-6.89-28.32-12.44a2,2,0,0,1-.58,1.34,1.73,1.73,0,0,1-.21.17c11.58,5.94,21.59,13.75,29.07,13.12C200.86,195.74,200.11,194,195.69,194Z" transform="translate(0 -21.21)"/><path d="M125.14,184.59a1.75,1.75,0,0,1-.29-1.11C114.63,188.86,106,196.35,98,196.59c-6.69.21-5.48,2.33.49,2,8.24-.4,17.49-8,27.48-13.28A2.31,2.31,0,0,1,125.14,184.59Z" transform="translate(0 -21.21)"/><path d="M194.5,197.23c-8-.07-16.91-6.25-26.7-11.57a1.86,1.86,0,0,1-1.39,1.6c11.35,5.71,21.66,12.69,28.05,12.15C199.67,199,198.91,197.26,194.5,197.23Z" transform="translate(0 -21.21)"/><path d="M105.29,200.69c13.77-.84,20.51-16.81,38.81-17.21,19.71-.44,31.72,21.87,49.58,21.08,5.23-.23,4.46-2.17,0-2.19-17.45-.08-31.58-22-49.29-21.73-17.12.23-28.79,18-39.62,18-6.7,0-5.48,2.39.49,2Z" transform="translate(0 -21.21)"/></g><g id="SHIRT"><path class="cls-1" d="M181.74,105.4c-6.93-11-15.81-19-27.3-18.25a1.4,1.4,0,0,0-1,.7c-5.81,11.6-19.1,9.7-23.09.06a.73.73,0,0,0-.75-.47c-10.26,1-18.13,17.26-20,20.34a.56.56,0,0,0,.17.76l0,0,7.51,4.26a1.06,1.06,0,0,0,1.44-.41l0-.1c.53-1.28,1.26-3.28.86-3.73-1.39-1.58-3.21-3.87-2.19-5.27.68-.94,2.32,4.37,3.78,3.55.89-.5-1.19-6.4.71-6.15.69.09.74,1.65.92,3,.32,2.41,1,2.93.89,3.18-.89,1.87-2.4,3-2.77,8.79-.42.76.63,10,1.79,18.43l-1.5-20.45a2.72,2.72,0,0,1,2.55-2.85h0l43.09-.18a2.71,2.71,0,0,1,2.54,2.84l-1.74,23.77c1.3-8.13,2.43-19.2,1.8-24.68-.17-1.53-.66-4.76-1.92-5.87-.2-.17.22-1.84.69-3.44.33-1.17.2-3.08.89-2.82,1.53.56.31,5,.66,5.45.55.79.51,1.38.93.9,1.38-1.58,1-3.12,2.09-3.94.85-.64-.1,3.8-1.47,5.9-.09.14.28,1,.44,1.39.33.94,4.69-4.23,5.62-3s-4.73,4.37-4.87,5.54h0a6,6,0,0,0,0,2c1.32-.62,8.61-7.55,8.9-7.92A1,1,0,0,0,181.74,105.4Z" transform="translate(0 -21.21)"/><path d="M186.35,105.57c-8.91-14.93-19.21-23-34-22.64-3.54,10-16.48,14.74-19.94.21h0c-16.1.73-23.34,17.57-26.72,24.52a2,2,0,0,0,.81,2.59l10,5.85a3,3,0,0,1,1.49,2.28,351.19,351.19,0,0,1,2,38.37,445.75,445.75,0,0,0,50.65.36c.29-12,1.51-25.4,3.29-39.54l12-9.68A1.84,1.84,0,0,0,186.35,105.57Zm-4.82,1.13c-.29.37-7.58,7.3-8.9,7.92a5,5,0,0,1,0-2h0c.14-1.17,5.75-4.43,4.87-5.54s-5.29,4-5.62,3c-.16-.43-.53-1.25-.44-1.39,1.37-2.1,2.32-6.54,1.47-5.9-1.11.82-.71,2.36-2.09,3.94-.42.48-.38-.11-.93-.9-.35-.5.87-4.89-.66-5.45-.69-.26-.56,1.65-.89,2.82-.47,1.6-.89,3.27-.69,3.44,1.26,1.11,1.75,4.34,1.92,5.87a2.93,2.93,0,0,1,.25,1.2l-.09,1.24a125.67,125.67,0,0,1-1.3,17.76l-.66,9a2.89,2.89,0,0,1-1.33,2.48c-.44,1.81-.84,2.9-1.12,2.87-15.47-.57-30-.7-40.07,1.17-.15,0-.86-1.13-1.32-3.87a4.21,4.21,0,0,1-.84-2.06l-.14-4c-1.36-9.25-2.4-21.78-1.91-22.67.37-5.8,1.88-6.92,2.77-8.79.12-.25-.57-.77-.89-3.18-.18-1.33-.23-2.89-.92-3-1.9-.25.18,5.65-.71,6.15-1.46.82-3.1-4.49-3.78-3.55-1,1.4.8,3.69,2.19,5.27.4.45-.33,2.45-.86,3.73a1.06,1.06,0,0,1-1.39.56l-.1,0-7.51-4.26a.55.55,0,0,1-.23-.74l0,0c1.83-3.08,9.7-19.31,20-20.34a.73.73,0,0,1,.75.47c4,9.64,17.28,11.54,23.09-.06a1.4,1.4,0,0,1,1-.7c11.49-.73,20.37,7.24,27.3,18.25A1,1,0,0,1,181.53,106.7Z" transform="translate(0 -21.21)"/><path d="M134.38,96.17c-.15-1.54,3.34,3,11.11.63,7.08-2.12,9.49-7.67,9.86-5.9.44,2.09-2.82,5.93-8.93,7.65C140.07,100.35,134.65,99,134.38,96.17Z" transform="translate(0 -21.21)"/></g><path id="NECK" d="M151,78a19.77,19.77,0,0,1-17.45,1.35c-.37,3.14-2.25,5.77-4.13,8.15,4.78,11.09,19.45,10.17,24.68-.32C153.62,85.43,151.58,82.28,151,78Zm-17.45,9.6a22.1,22.1,0,0,0,2.37-5.07c3.9,1.6,9.85.7,13.12-1.15.48,2.07,1.53,5.09,1.71,5.89C148,93.58,137.41,95.34,133.55,87.6Z" transform="translate(0 -21.21)"/><g id="HEAD"><path d="M151.4,80.83c3.71-3,6.09-7.81,5.36-14.1,4.79-1.09,5-11-.42-10.43.75-8.23-.12-14.25-2.92-16.7-4.59-3.75-9.18-2.92-12.52-2.5-3,.37-14.26,4.81-13.78-1.25-2.08.83-1.25,5,.84,5.84-1.67.42-4.18.42-4.59-1.67-.84,1.67,0,3.76,2.08,3.76-.41,1.25-2.92.83-2.92-.42a2,2,0,0,0,.57,2.77l.27.15A56.64,56.64,0,0,0,125,60.06c-5.58,2-3,11.35,1.67,10.43.53,5.47,2.9,9.23,6.1,11.45,4.58,3.49,14.18,3.49,18.59-1.11Zm4.94-21.61c2.51-.08,1.67,4.59,0,4.59ZM125.87,63a26.55,26.55,0,0,1,.42,4.17C123.78,67.57,123.78,62.56,125.87,63Zm12.5,8.35a24.8,24.8,0,0,0,7.95-.84c0,.84-.83,2.51-4,2.55-3.51.35-3.93-.9-3.95-1.73ZM128,48a7.64,7.64,0,0,0,2.92-.42c.84,2.93,5.43,6,5.43,5s-3.34-3.34-3.76-5.42c1.67,2.92,8.35,5.84,9.18,4.59.14-.83-6.26-2.92-6.26-5,3.76,2.92,8.35,2.09,10.44,4.17,1.32,1.32.83-2.5-2.09-3.75,4.2.31,7.93,1.25,9.18,5,.46,1.38,0,2.51,0,5-5.84-.38-9.09.06-9.6,1.7-.08,2.5,3.76-.83,9.19.84.23,3.14.39,6.18.41,9.07a19,19,0,0,0-8.34-1.56c-.48.1-.51-6.62-1.67-6.68-1.47-.07,0,6.92-.42,7.1l-2.92.42c0-2.93,0-9.19-2.51-9.6-2.06-.35-8.07,1.11-8.35,1.25C128,54.21,127.54,49.62,128,48Zm2.5,23a74.05,74.05,0,0,1-1.25-8.77c2.17-1.35,6.26-2.08,7.1-1.25s1.21,3.32,1.25,7.51a24.11,24.11,0,0,0-7.14,2.42Z" transform="translate(0 -21.21)"/><path d="M132.13,63.31a9,9,0,0,1,2.92-.42C135.42,65.39,132.38,65.78,132.13,63.31Z" transform="translate(0 -21.21)"/><path d="M147.06,61.47a6.8,6.8,0,0,1,3.44.17C149.89,63.92,146.75,63.9,147.06,61.47Z" transform="translate(0 -21.21)"/></g><path id="RIGHT_HEND" data-name="RIGHT HEND" d="M193.08,128.31c-.61-6.28-4.54-13.58-9.19-22.31l-13.11,8.13c2,3.71,4.77,7.28,6.34,11l-6.82,4.55a16.47,16.47,0,0,0,.58,8.8c.14.34,11.67-.39,15.13-1.37C191,135.69,193.53,132.87,193.08,128.31Zm-20.29,8.21a23.5,23.5,0,0,1-.24-5.43,70.51,70.51,0,0,1,10.57-6.38c1-.49.8-1.93-1-1.72a18.08,18.08,0,0,0-3.34,1.23l-4.58-8.3a100.83,100.83,0,0,1,8.57-5.6c5.27,10.25,6.79,13.55,7.57,18.73,1.08,7.19-17.46,7.51-17.55,7.47Z" transform="translate(0 -21.21)"/><path d="M115.32,126.74c1.53-3.62,4.15-7.11,6.17-10.71v-.42l-12.91-8c-4.65,8.73-8.58,16-9.19,22.31-.44,4.56,1.91,8.14,7.07,8.81,3.67.47,13.81.15,13.81.15a18.92,18.92,0,0,0,.44-9.42Zm2.75,9.78h0c-.09,0-17,1.32-16-5.86.78-5.18,2.3-8.48,7.57-18.73a100.83,100.83,0,0,1,8.57,5.6l-4.59,8.3a18,18,0,0,0-3.33-1.23c-1.81-.21-2,1.23-1,1.72,2.13,1.05,8.68,4.26,8.75,4.25A20.46,20.46,0,0,1,118.07,136.52Z" transform="translate(0 -21.21)"/><g id="RIGHT_LEG" data-name="RIGHT LEG"><path id="RIGHT_ANKLE" data-name="RIGHT ANKLE" d="M120.14,172.26c3,4,3.82,6.35,4.93,11.22l9.53-5a20.53,20.53,0,0,0-4-11.25l-10.45,5Zm3.92,1.57,4.76-2.17a10.91,10.91,0,0,1,2.08,5.89l-4.29,2.14a12.85,12.85,0,0,0-2.55-5.87Z" transform="translate(0 -21.21)"/><path d="M196,149.89c-4-15.08-14.37-14.5-28.61-7.62a2.64,2.64,0,0,1-2.49,2.28h-2c-10.81,5.82-23.53,14.41-37.27,22.29,2.23,6,4,13.28,3.36,20.41h0C168.81,172.14,200.82,167.91,196,149.89Z" transform="translate(0 -21.21)"/><path class="cls-2" d="M132.48,181.84a56.29,56.29,0,0,0-2-13.9c6.64-3.53,25.07-16,39.54-22.38,11-4.88,19-6.41,21.73,2.63,2.91,9.76-1.52,13.33-13,18.18-9.66,4.09-45.66,15.72-46.25,15.47Z" transform="translate(0 -21.21)"/><path d="M173.1,165.78c.16,1.58,6.65-1.42,11.79-4.36,4.29-2.45,6.41-5.89,5.79-7-.91-1.62-.88,2.45-6.7,5.75-8.67,4.9-11,4.48-10.88,5.63Z" transform="translate(0 -21.21)"/><path d="M166.92,150.6c-.37-1.54-6.14,2.07-11.52,4.58s-20.62,11.71-20.14,12.91c.7,1.72,4.64-3.48,21-11.61C165.14,152,167.12,151.47,166.92,150.6Z" transform="translate(0 -21.21)"/><path d="M105.58,197.74c-5.08-2.68-6.07-11.55-5.15-17.22,1-6.21,17.24-9,21.1-9,3.08,0,6.27,13.41,4.13,15-9.08,6.71-17.17,12.73-20.09,11.19Z" transform="translate(0 -21.21)"/><path class="cls-3" d="M104.45,181.17c1.19-3,12.26-6.84,13.9-6.41,2.44.63,4.22,8.3,3.69,9.84a4.12,4.12,0,0,1-1.09,1.19c-.18.16-1.77-4.54-2.79-4s1.47,5,1,5.38a8.31,8.31,0,0,1-1,.77c-.27.19-2.08-5.43-3-4.66-1.09.89,1.65,5.6,1.12,6a6.63,6.63,0,0,1-1,.63c-.32.21-2.32-6.49-3.16-5.1-.72,1.2,1.81,5.92,1.12,6.39-.36.25-.75.46-1.11.67s-1.8-6.72-2.79-5.72c-1.31,1.3,1.7,6.46.77,6.83-1.69.68-2.87,1.31-3.28,1.09-1.93-1-3.14-11.13-2.46-12.86Z" transform="translate(0 -21.21)"/></g><g id="LEFT_LEG" data-name="LEFT LEG"><path id="LEFT_ANKLE" data-name="LEFT ANKLE" d="M162.64,170.81a20.53,20.53,0,0,0-4,11.25l9.53,5c1.11-4.86,1.89-7.2,4.93-11.21l-10.45-5Zm5.13,13.05-5.44-2.72a10.85,10.85,0,0,1,2.08-5.88l5.73,2.13c-1.79,2.15-2,4-2.36,6.48Z" transform="translate(0 -21.21)"/><path d="M161.71,187.46c-.76-6.92,1.51-13.08,5.62-18.76C129.22,150,103.05,124.87,97,151.7c-4.29,19,24,22.26,64.72,35.72Z" transform="translate(0 -21.21)"/><path class="cls-2" d="M157.85,182.65c-18.53-6.35-33.49-10.53-43.58-14.43-11.61-4.49-15.89-8.42-13-18.18,2.68-9,10.17-8,20.62-2,13.26,7.67,39.72,21.69,39.72,21.69-1.55,3.32-3.62,8.63-3.78,12.88Z" transform="translate(0 -21.21)"/><path d="M155.85,180.1h0a.7.7,0,0,0,.85-.47,31.58,31.58,0,0,1,2.11-7,.68.68,0,0,0-.45-.85h0a.7.7,0,0,0-.86.46,34.23,34.23,0,0,0-2.11,7,.69.69,0,0,0,.46.86Z" transform="translate(0 -21.21)"/><path d="M148.2,165c-.3-.75-6.93-3.62-12-6.72-9.51-5.79-16.65-10.74-20.5-11.52-3.16-.65-3.65,1-2.61,1.27a20,20,0,0,1,8.47,3.12c17.37,11.34,28,17.11,26.68,13.85Z" transform="translate(0 -21.21)"/><path d="M185.87,199.1c5.08-2.68,6.06-11.55,5.14-17.23-1-6.2-17.24-9-21.1-9-3.07,0-6.27,13.41-4.13,15,9.08,6.72,17.17,12.74,20.09,11.2Z" transform="translate(0 -21.21)"/><path class="cls-3" d="M187,182.53c-1.19-3-12.26-6.85-13.91-6.42-2.43.64-4.21,8.31-3.68,9.85a4,4,0,0,0,1.09,1.19c.18.16,1.45-4.74,2.46-4.23s-1.14,5.19-.73,5.58a8.31,8.31,0,0,0,1,.77c.26.2,1.93-5.64,2.87-4.87,1.09.9-1.5,5.81-1,6.2a6.69,6.69,0,0,0,1,.64c.32.2,2-6.84,3.16-5.11.79,1.15-1.81,5.92-1.12,6.39.36.25.74.46,1.11.67s1.67-6.3,2.66-5.3c1.31,1.3-1.58,6.05-.65,6.41,1.7.68,2.88,1.31,3.29,1.09,1.93-1,3.14-11.13,2.45-12.86Z" transform="translate(0 -21.21)"/></g><path d="M170.59,107.61l-49.74.21h0a3.21,3.21,0,0,0-2.94,3.4l2.37,33.46a3.21,3.21,0,0,0,2.94,3.4l45-.28a3.2,3.2,0,0,0,2.94-3.39L173.53,111A3.2,3.2,0,0,0,170.59,107.61Zm-3.14,33.84a2.71,2.71,0,0,1-2.54,2.84l-39,.23a2.71,2.71,0,0,1-2.54-2.84l-2.06-28a2.72,2.72,0,0,1,2.54-2.84h0l43.1-.18a2.7,2.7,0,0,1,2.54,2.85Z" transform="translate(0 -21.21)"/></g><g id="PLANET"><g id="LEFT_CRATER" data-name="LEFT CRATER"><path d="M76.73,164.12c-1.8-2.24-7,1.34-12.62,6.61s-9.21,10.78-7.23,12.88,8.42-.42,14-5.69S78.27,166,76.73,164.12Zm-9.68,11.69c-2.26,2.14-4.61,3.75-5.07,2.91-.21-.38,1.34-2.69,3.6-4.83s4.37-3.27,4.59-2.9C70.67,171.8,69.32,173.67,67.05,175.81Z" transform="translate(0 -21.21)"/><path d="M65.64,187.39a1.09,1.09,0,0,0-.64,1.4v0c.19.41.49.81,1.55.42,3.37-1.21,9-6.5,9.11-6.59.71-.8.6-1.34.17-1.76-.15-.15-.78-.41-1.53.35-.26.27-5.44,5.1-8.68,6.15Z" transform="translate(0 -21.21)"/><path d="M60.69,189.37c-3.76,1.4-6.58-.79-7.64-1.51-.26-.18-1.13-1.06-1.92-.27-.29.29,0,.69.26,1.34.49,1.25,4.9,4.1,9.35,2.37.29-.11,1.07-.4,1.07-1.22s-.77-.83-1.12-.7Z" transform="translate(0 -21.21)"/><path d="M63,165.83c-.34-.59-1-.47-1.54-.19-3.6,1.58-11.36,12.82-11.12,17.26,0,.62.34,1.35.95,1.44a1.27,1.27,0,0,0,1.48-1,1.36,1.36,0,0,0,0-.2c.77-6.69,6.67-13.19,9.91-16a1.28,1.28,0,0,0,.3-1.28Z" transform="translate(0 -21.21)"/><path d="M66.61,162.43h0a.92.92,0,0,0,1.23.38l0,0c3.69-3.12,8.51-3.09,9.63-3.11a5.78,5.78,0,0,0,1.9-.14,1,1,0,0,0-.29-1.38.86.86,0,0,0-.41-.16A17.54,17.54,0,0,0,67,161a1,1,0,0,0-.4,1.36l0,0Z" transform="translate(0 -21.21)"/><path d="M83.12,167.21a.68.68,0,0,0,.43.79.82.82,0,0,0,1.06-.5.57.57,0,0,0,0-.14c.75-2.23-.13-4.91-1-5.52-.52-.36-1.33-.15-1.16.74a7.28,7.28,0,0,0,.45,1.12,4.64,4.64,0,0,1,.19,3.51Z" transform="translate(0 -21.21)"/><path d="M83.05,173.21c.1-.22.23-.42.34-.64a1.06,1.06,0,0,0,0-1.06A1,1,0,0,0,82.2,171c-.3.1-1,1.41-1.29,1.8-.53.88,1.16,2.48,2.15.43Z" transform="translate(0 -21.21)"/></g><path d="M100.38,133.15a7.19,7.19,0,0,1,.08-6A125.15,125.15,0,0,0,24.29,227.5c-.76,6.31,3.08,7.71,3.49,2.65,4.6-44.6,33.19-80.63,72.73-96.73l-.13-.26Z" transform="translate(0 -21.21)"/><path d="M271.13,218.64a125.25,125.25,0,0,0-79.53-93.31v.32a6.86,6.86,0,0,1,0,1.81,10.77,10.77,0,0,1-.59,4.1l-.12.24c39.42,14.29,69.07,47.81,76.34,90.38.74,5.45,4.77,2.43,3.84-3.54Z" transform="translate(0 -21.21)"/><g id="CENTER_CRATER" data-name="CENTER CRATER"><path d="M145.39,214.92c-.91-3.78-5.88-6.53-10.65-4.68-3.91,1.52-7.14,5.57-7.36,9-.25,3.88,5.68,5.88,10.66,4.68s8.27-5.24,7.35-9Zm-8.67-2.09c.58-1.45,6-1.55,6.34,2.63.15,1.93-.89,2.56-.89,1.09a3.29,3.29,0,0,0-1.12-3c-2.69-1.85-4.58-.07-4.33-.7Zm-2.73,2.4c-.23-1.69,5.95-2.8,6.57,2.49.22,1.92-1.38,2.5-1.38,1a3.31,3.31,0,0,0-1.11-3c-2.7-1.85-4,.17-4.09-.5Zm2.14,3.84a1.06,1.06,0,1,1,1.17-1,1.11,1.11,0,0,1-1.17,1Z" transform="translate(0 -21.21)"/><path d="M127.1,209.94c1.43-3.05,8.28-6.69,13.51-5,.81.26,1.41-.73,1.23-1.38s-.44-.82-2-1C134,202,129,204,125.64,208c-.84,1-1.17,1.29-.7,1.89.17.21,1.61,1.27,2.15.11Z" transform="translate(0 -21.21)"/><path d="M149.84,207.62c-.61-.19-1.32.25-.89,1a6.25,6.25,0,0,0,.76.94,4.67,4.67,0,0,1,1.22,3.3.67.67,0,0,0,.64.63.85.85,0,0,0,.88-.8.66.66,0,0,0,0-.14c.05-2.35-1.58-4.65-2.6-5Z" transform="translate(0 -21.21)"/><path d="M129.64,227.8c-4,.1-6-2.89-6.73-3.92-.19-.26-.72-1.37-1.72-.88-.38.18-.43.65-.25,1.36a8.89,8.89,0,0,0,8.12,5.28,1.41,1.41,0,0,0,1.41-.81c.26-.76-.46-1-.83-1Z" transform="translate(0 -21.21)"/><path d="M147.19,224.32a10.64,10.64,0,0,1-7.47,4.4c-.34,0-1.67-.15-1.84,1-.06.44.38.79,1.09.85,1.27.11,6.68-.3,9.38-4.79a1.84,1.84,0,0,0,0-1.92c-.51-.62-.94.13-1.19.45Z" transform="translate(0 -21.21)"/><path d="M117.7,218.07c.38-.37-.24-1.13-.76-1.28s-.65,0-1.14.8c-1.78,3-1.36,6.71,1,10.62.52.86.71,1.2,1.25,1.16.2,0,1.14-.43.54-1.24-1.72-2.31-3.14-7.85-.91-10.06Z" transform="translate(0 -21.21)"/><path d="M150.18,229c-.5.16-.29,1.12.1,1.48s.56.34,1.38-.19c2.94-1.87,4.24-5.37,3.89-9.93-.08-1-.08-1.4-.58-1.62-.18-.07-1.22-.12-1.05.87.49,2.84-.75,8.42-3.74,9.38Z" transform="translate(0 -21.21)"/></g><g id="RIGHT_CRATER" data-name="RIGHT CRATER"><path d="M224.93,171.36h0c.23.41.93.84,1.3.53,3.87-3.15,9.35-1.72,10.55-1.54a6.76,6.76,0,0,0,2.05.23c.54-.44.21-1.21-.59-1.44-3.78-1-8.68-1.41-12.76,1.1C225,170.55,224.66,170.89,224.93,171.36Z" transform="translate(0 -21.21)"/><path d="M228.22,192.48c-.18-.59-1.09-.64-1.54-.3s-.6.62-.06,1.61c1.73,3.18,5.11,5.51,9.39,7.1,1,.37,1.44.28,1.75-.23a1,1,0,0,0-.47-1.33.83.83,0,0,0-.22-.08C234.56,198.57,229.18,195.58,228.22,192.48Z" transform="translate(0 -21.21)"/><path d="M252.43,191.4c.38,4-2.45,6.16-3.43,7-.24.21-1.31.82-.75,1.79a1.21,1.21,0,0,0,1.39.27c1-.41,5.19-3.86,4.66-8.61a1.37,1.37,0,0,0-.91-1.34c-.79-.22-1,.54-1,.9Z" transform="translate(0 -21.21)"/><path d="M223.09,176.49c.22-.2-.07-.51-.25-.6a1,1,0,0,0-1.19.09,2.75,2.75,0,0,0-.1,3.69c.43.37,1.25.46,1.26-.13,0-.24-.59-2.23.28-3Z" transform="translate(0 -21.21)"/><path d="M217.71,184.32c-2.65-3-1.63-6.43-1.33-7.67.07-.32.58-1.43-.44-1.89-.38-.17-.65.26-1.16.73-1,.9-2.05,6,1.16,9.57a1.41,1.41,0,0,0,1.53.56.77.77,0,0,0,.46-1,.72.72,0,0,0-.21-.31Z" transform="translate(0 -21.21)"/><path d="M245.17,179.11c-5.17-5.81-11.76-7.18-15.92-4.68-5,3-3.82,10.51,2.8,16.35,5.68,5,12.29,7.28,15.91,4.69C251.91,192.65,250.34,184.92,245.17,179.11Zm-9.11,9.43a1.35,1.35,0,1,1,.28-1.25A1.36,1.36,0,0,1,236.06,188.54Zm3.17-.51a4.44,4.44,0,0,0-1.81-3.14c-2.7-1.84-4.34-.88-4-1.49.55-1.19,5.94-.51,6.81,3.58.41,2.16-1,2.53-1,1Zm7.31,2.85c-1.08,3.72-7.77,2.8-5.17,1.82,1.3-.48,6.17-1.72,2.19-8.42-3.63-6.13-10.85-7.21-9.66-7.47,5.2-1.18,14.69,7,12.65,14.07Z" transform="translate(0 -21.21)"/></g><path d="M40.6,210c-.41-5.66.64-8,3.23-11.74.45-.63-1.17-.71-1.71-.17-2.49,2.51-3.73,7.31-3.27,11.65C39,211.32,40.72,211.67,40.6,210Z" transform="translate(0 -21.21)"/><path d="M44.79,208.32c-.06-2.18.19-3.07,1.3-4.09.57-.52-1-1.09-1.59-.65a3.69,3.69,0,0,0-1.32,4c.47,1.53,1.63,1.38,1.61.76Z" transform="translate(0 -21.21)"/><path d="M77,223.48c2.36-4.55,3.69-6.28,7.56-8.51.67-.38-.63-1.53-1.29-1.13-2.57,1.52-6.49,4.94-7.65,8.64-.35,1.11.87,2,1.39,1Z" transform="translate(0 -21.21)"/><path d="M69.2,222.33c1.93-3.35,2.87-4.9,5.48-7.07.6-.49-.73-1.66-1.29-1.13a25.68,25.68,0,0,0-5.57,7.2c-.54,1,.83,2,1.39,1Z" transform="translate(0 -21.21)"/><path d="M87.13,221.29c2.59-2.87,3.83-4.19,6.84-5.76.69-.36-.36-1.78-1-1.38A25.77,25.77,0,0,0,86,220c-.74.89.4,2.1,1.15,1.27Z" transform="translate(0 -21.21)"/><path d="M102.92,215.47a14,14,0,0,1,3.86-3.65c.67-.37-.4-1.83-1-1.38a16.86,16.86,0,0,0-4,3.77c-.73.9.43,2.12,1.15,1.27Z" transform="translate(0 -21.21)"/><path d="M63.92,193.31c-3.47,1.71-5.11,2.47-8.49,2.81-.77.07-.33,1.79.43,1.66a25.69,25.69,0,0,0,8.65-2.85c1-.56.41-2.1-.59-1.61Z" transform="translate(0 -21.21)"/><path d="M217.25,214.34a14,14,0,0,1,3.86-3.65c.67-.37-.39-1.84-1-1.38a17,17,0,0,0-4,3.76c-.72.91.43,2.13,1.15,1.28Z" transform="translate(0 -21.21)"/><path d="M240.48,219.78c1.37-1.44,1.42-1.69,2.74-2.95.94-.89-.09-2.3-1-1.38a23.58,23.58,0,0,0-2.86,3.05c-.68.95.38,2.09,1.14,1.28Z" transform="translate(0 -21.21)"/><path d="M226.25,219.78c.84-.94,1.38-1.58,1.69-1.93,1-1.13-.08-2.29-1-1.39a14.35,14.35,0,0,0-1.82,2c-.7.92.41,2.1,1.15,1.27Z" transform="translate(0 -21.21)"/><path d="M232.15,216.1c.84-.94,1.38-1.57,1.69-1.93,1-1.13-.08-2.29-1-1.38a13.31,13.31,0,0,0-1.82,2c-.7.92.41,2.11,1.15,1.27Z" transform="translate(0 -21.21)"/></g><g id="BLUE_PLANET" data-name="BLUE PLANET"><path d="M280.44,119.89A19.57,19.57,0,1,0,300,139.47v0A19.58,19.58,0,0,0,280.44,119.89Zm0,35.46a15.9,15.9,0,1,1,15.9-15.9h0A15.9,15.9,0,0,1,280.44,155.35Z" transform="translate(0 -21.21)"/><path class="cls-4" d="M280.44,155.35a15.91,15.91,0,1,1,15.9-15.92v0A15.9,15.9,0,0,1,280.44,155.35Z" transform="translate(0 -21.21)"/><path d="M276.91,147.86a17.22,17.22,0,0,1,5.24-2.89,36.46,36.46,0,0,1,6.47-1.93.85.85,0,1,0-.35-1.67,37.47,37.47,0,0,0-6.79,2.07,19,19,0,0,0-5.73,3.22.84.84,0,1,0,1.16,1.2Z" transform="translate(0 -21.21)"/><path d="M278.09,142c.93,0,.57-1.62-.35-1.53a7.36,7.36,0,0,0-4.61,2.06c-.68.65.4,1.82,1.08,1.17A6.54,6.54,0,0,1,278.09,142Z" transform="translate(0 -21.21)"/><path d="M276.18,135.92c.92.07,1-1.46.05-1.57a4.81,4.81,0,0,0-3.59.8.77.77,0,0,0-.3,1,.76.76,0,0,0,.93.35,6.63,6.63,0,0,1,2.91-.63Z" transform="translate(0 -21.21)"/><path d="M279.17,150.36c-.93,0-.55,1.62.37,1.53,1.81-.2,8.93-3.68,10.22-4.94.67-.66-.42-1.81-1.09-1.15-.16.31-7.92,4.6-9.5,4.57Z" transform="translate(0 -21.21)"/><path d="M289.14,131.11c.82-.45.54-1.56-.4-1.36-1.79.38-4.65,2.77-5.95,4-.68.65.4,1.81,1.08,1.16A42.68,42.68,0,0,1,289.14,131.11Z" transform="translate(0 -21.21)"/><path d="M268.33,140.68c-.92.09-.7,1.6.23,1.56a4.77,4.77,0,0,0,3.39-1.42.76.76,0,0,0,.05-1.09.78.78,0,0,0-.91-.17,6.76,6.76,0,0,1-2.76,1.13Z" transform="translate(0 -21.21)"/><path d="M287.68,135.71c-.93.14-.6,1.71.31,1.54a4.33,4.33,0,0,0,2.57-1.24.77.77,0,0,0,0-1.09.79.79,0,0,0-.93-.12,3.5,3.5,0,0,1-1.95.91Z" transform="translate(0 -21.21)"/><path d="M291.89,140.19c-.83.5.17,1.85,1,1.33a4.28,4.28,0,0,0,1.93-2.18.82.82,0,0,0-1.43-.78C292.92,139.2,293,139.55,291.89,140.19Z" transform="translate(0 -21.21)"/><path d="M279.59,130.52c-.75.6.07,1.64,1,1.33,1.17-.4,1.24-1,1.25-1.39,0-1-.89-1.56-1.43-.77A2.33,2.33,0,0,1,279.59,130.52Z" transform="translate(0 -21.21)"/><path d="M272.76,129.94c.76-.23.31-1.31-.51-1.36-1.07-.06-1.26.4-1.35.69-.25.74.38,1.52,1,1.07a2,2,0,0,1,.84-.41Z" transform="translate(0 -21.21)"/><path d="M270.32,133c.12-.17.34-1.19-.38-1.19-.95,0-1.13.43-1.23.69a.69.69,0,0,0,.3.93.75.75,0,0,0,.36.07,1.36,1.36,0,0,0,1-.47Z" transform="translate(0 -21.21)"/></g><g id="STARS"><circle cx="194.47" cy="3.68" r="3.68"/><circle cx="237.72" cy="3.68" r="2.31"/><circle cx="3.68" cy="104.12" r="3.68"/><circle cx="50.62" cy="100.74" r="2.33"/><circle cx="17.1" cy="117.51" r="1.96"/><circle class="cls-1" cx="174.3" cy="13.6" r="2.69"/><circle class="cls-1" cx="83.87" cy="90.3" r="1.5"/><circle cx="233.34" cy="59.5" r="2.31"/><circle class="cls-1" cx="266.86" cy="36.64" r="2.69"/><circle cx="82.17" cy="14.64" r="2.69"/></g><g id="ORANGE_PLANET" data-name="ORANGE PLANET"><path class="cls-1" d="M50.61,100.67A25.71,25.71,0,1,1,76.32,75v0A25.71,25.71,0,0,1,50.61,100.67Z" transform="translate(0 -21.21)"/><path d="M36.05,79.26a.7.7,0,0,0-.95.31.71.71,0,0,0,.31,1l.14,0c3.2,1.53,24.12.23,25.5-.54,1.08-.61.78-1.69-.15-1.58C58.9,79.11,38.67,80.17,36.05,79.26Z" transform="translate(0 -21.21)"/><path d="M52.47,68.66c-.93.1-1,1.66-.08,1.58,3.8-.3,17.65-2.67,19.28-3.36a.79.79,0,0,0-.38-1.54C69.11,66.1,55.2,68.34,52.47,68.66Z" transform="translate(0 -21.21)"/><path d="M33,70.92c-.92-.13-1.34,1.36-.39,1.54a73.63,73.63,0,0,0,11.68.87c1.24,0,.87-1.64-.07-1.58A100.27,100.27,0,0,1,33,70.93Z" transform="translate(0 -21.21)"/><path d="M58.05,84.68c-.93,0-1.14,1.53-.17,1.58a20.7,20.7,0,0,0,6.23-.37c1.22-.23.63-1.75-.29-1.56A25.92,25.92,0,0,1,58.05,84.68Z" transform="translate(0 -21.21)"/><path d="M41.56,61.44c.93,0,1.11-1.55.15-1.57a20.71,20.71,0,0,0-6.23.47c-1.21.25-.59,1.76.32,1.56a26,26,0,0,1,5.77-.46Z" transform="translate(0 -21.21)"/><path d="M45.2,64.74c-.93,0-1.18,1.5-.22,1.57a21.12,21.12,0,0,0,6.25-.17c1.22-.19.68-1.73-.25-1.56A27.25,27.25,0,0,1,45.2,64.74Z" transform="translate(0 -21.21)"/><path d="M43.9,95.57c-.91-.21-1.13,1.23-.22,1.56,2.86,1.06,8.73.94,10.67.14,1.15-.47.68-1.73-.24-1.57C50.19,96.1,48.23,96.56,43.9,95.57Z" transform="translate(0 -21.21)"/><path d="M40,53.18c-.92.11-.9,1.64.07,1.58,3.31-.22,6.68-.51,9.64-.74,1.23-.09.36-1.82-.52-1.49A76.44,76.44,0,0,0,40,53.18Z" transform="translate(0 -21.21)"/><path d="M55.08,59.34c-.89.28-.65,1.87.26,1.56a50.08,50.08,0,0,1,12-2.33c1.23-.08.12-1.85-.71-1.42a46.12,46.12,0,0,0-11.58,2.19Z" transform="translate(0 -21.21)"/><path d="M50.61,45.62a29.35,29.35,0,1,0,.09,0Zm0,55.05A25.71,25.71,0,1,1,76.32,75v0A25.71,25.71,0,0,1,50.61,100.67Z" transform="translate(0 -21.21)"/><path d="M75,61.09c.39,1.27.7,2.33,1,3.47,10.07,4.38,16.21,9.91,15.43,15-1.29,8.38-21.11,12.29-44.27,8.71S6.25,75,7.54,66.59c.83-5.39,9.3-8.92,21.39-9.81,1.09-.93,2.18-2,3.4-3C16.43,54.35,4.78,59,3.66,66.28c-1.56,10.1,17.69,21.45,43,25.36S93.74,90.52,95.3,80.42c1-6.75-7.22-14.06-20.36-19.33Z" transform="translate(0 -21.21)"/></g><g id="CAT"><path d="M204.05,95.27a2.78,2.78,0,1,0,2.77,2.79V98A2.77,2.77,0,0,0,204.05,95.27Zm-.06,5.45a2.22,2.22,0,1,1,2.21-2.23h0a2.21,2.21,0,0,1-2.2,2.22h0Z" transform="translate(0 -21.21)"/><path d="M212.31,96.3a2.78,2.78,0,1,0,2.77,2.79v0a2.77,2.77,0,0,0-2.77-2.77Zm-.06,5.44a2.21,2.21,0,1,1,2.21-2.21A2.21,2.21,0,0,1,212.25,101.74Z" transform="translate(0 -21.21)"/><circle cx="204.63" cy="77.77" r="1.34"/><circle cx="212.66" cy="78.99" r="1.34"/><path d="M209,101.74c-.47.59-.61,1-1.35,1s-.81-.53-1.32-1,.59-.61,1.32-.61S209.3,101.35,209,101.74Z" transform="translate(0 -21.21)"/><path d="M209.23,105.39c0,.33-.57,0-1.27,0s-1.26.33-1.26,0a1.27,1.27,0,0,1,2.53,0Z" transform="translate(0 -21.21)"/><path d="M239,127.65c-1-3.65-5.36-1.41-5.17,1,.22,2.86.69,4.91.32,7.44a3.74,3.74,0,0,1-4.24,3.16l-.17,0c4.52-1.63,4.78-8.41,2.68-13.43-.38-.91-4.36-8-7.2-13.85-2.5-5.2-3.63-6.37-5.48-7.14a7.33,7.33,0,0,0,1.22-1.33c1.41-2.11,2-5.2.18-7.58-.33,0,.59-8.77,0-10.92-.23-.85-5.72,4.88-5.72,4.88-3.88-1.31-7.65-2-11.22-1.24,0,0-5.32-6.13-5.8-5.66-.33.32-.9,10.11-1.19,10-1.33,2.68-2.23,5.73-.78,8.73a7,7,0,0,0,3.48,3.64,13.61,13.61,0,0,0-1.24,6.09c0,4.15.36,16.61.36,16.61-3,1.23-1.88,2.48,1,3.74,1.07.11,1.48-1,1.62-1.64a8.59,8.59,0,0,1,.84-1.82c.51,1.27,2.7,3,3.35,3.66-.07,1.63.07.23,0,2l-1.47,1c-1.08,1.61,4.51,4.29,5.58,2.69l.26-2.86.21-.51c1.19.67,2.36,1.35,3.49,1.86h-.22c-2.74-.72-3.36,2.7-1.81,3.33,2.61,1.06,7.08,4.65,9.81,5.36,14.92,3.89,17.88-2.84,18.47-7.68a27.35,27.35,0,0,0-1.17-9.51ZM218.71,88.16l-.13,5.65c-.08,0-2.65-2.65-2.65-2.65Zm-20.06-1.78,2.81,3.07-3,2.63.16-5.7Zm32.63,57a12.46,12.46,0,0,1-10.61-4.27c-4-4.41-4.09-15.14,4.25-14.37a3.49,3.49,0,0,0-3.39-1.88c-6.06.24-6.79,6.16-6.07,10.56a9.8,9.8,0,0,1-3.78-2.2c3.11-7.92,6.25-17.7,4-18.85-.53,4.51-3.81,12.9-7,21.12-.1.31-.3.43-.5.39l-.53-.12c-1-.18-.68,0,0-7.28.42-4.8,1.09-14.44,1.56-15.23-2.21.44-2.89,9.3-3.19,16.83a3.24,3.24,0,0,1-1.75-2.49,32.75,32.75,0,0,1-.36-4.19c.11-2.42,0-5.65.17-8.15-.94,1.77-1,3.56-1.25,6.1-.23,2-1.39,9.77-1.92,9.75-1.09,0-.8-.76-.73-1.44.59-5.53,1.06-19.13,1.37-20.23s1.46-1.26,3.51-.52m0-.06c-5.21-2.15-9.23-6.1-6.35-11.39,2.07-3.8,5.47-5.78,11.43-4.86,8.34.59,12.8,10.38,7.35,14.23-.86.61-3.24,2.36-3.24,2.36,3.62-1.39,4.31-1.41,5.86.35s2.66,5.09,4.58,9.41c1.79,4,4.4,8.8,5.54,14.2,1,4.52-.71,6-6,7.9a6.13,6.13,0,0,0,3.86,1.87c5.12.88,9.43-.88,8-10.42-.27-1.78,1.59-2.52,2-.15,1.81,9.32-1.91,12.52-6.84,13Z" transform="translate(0 -21.21)"/></g><circle cx="198.32" cy="213.16" r="1.29"/><circle cx="205.83" cy="213.32" r="1.21"/><path d="M210.19,229.8a6.74,6.74,0,0,1,0-5.18c-.22-.67-3.7.1-5.64,1.85a26.75,26.75,0,0,0-7.37,0c-3.52-2.07-6.45-2-6.59-1.36.66,1.56.81,2.58-.58,4.42-1,1.39-.88,3.16-1,4.52-4.58-1.63-13.28-5.34-13.42-8.59-.15-3.41-.27-10-1.43-13.57a24.73,24.73,0,0,0-9-12.61,13.64,13.64,0,0,0-10.42-2.48c-3.54.65-3.13,5.42,0,5.25,8.82-.45,11.57,6.39,13.07,9.93,2.2,5.18.9,12.06.9,12.06-3.18,2.61-6,6-6.54,10.31a30.62,30.62,0,0,0,.72,11.28,44.45,44.45,0,0,1,1.35,9.1c.56,8.3-1.24,8.77.24,10.35a3.58,3.58,0,0,0,4.65.39,1.63,1.63,0,0,0,.59-2.23h0a9.84,9.84,0,0,1-1-1.56c-.36-1.45.39-4.48.56-6,1-8.51,2-5.61,2-5.61.59,2.65-.09,6.39.35,10.37.21,1.86.85,3.5,2.69,3.93s3.4-.59,3.53-1.54a3.31,3.31,0,0,0-1.06-2.58c-2.29-3-1.4-5.72.43-8.24,0,1,4.07,5.1,6.07,5.74.43,6.76,1.71,13.21.92,17.28-.32,1.61-.69,3,2.26,3.67,1.89.42,5.42-1.38,4.56-3.24-.23-.51-1.25-1.15-1.46-1.66-2-4.89-.05-10,2.43-12.06,1-.78,1.49-.44,1.65,1,0,3.18,1.82,6.89,1.86,9.81,0,2,.11,4.17,3.22,4.5,1.68.18,2.63-.54,3-2.31s-3.32-4.76-2.64-10.06c1.33-10.38,8.56-8.07,6.29-19.74,3-1.51,6-4.67,6.35-5.9.91-3.18.75-2.24-1.55-9.25Zm-12.45,6.95c-2.19-.1-2.48-1.87-2.66-3-.27-1.67,2.09-1.53,3-1.33a2.29,2.29,0,0,1,2,2.47c0,1-1.44,1.89-2.42,1.85Zm4.27,0c.59,0,1.53.54,1.07.62-.86.16-.44.59-1.07.53s-.09-.25-1.08-.53c-.45-.12.48-.62,1.07-.62Zm0,2.89c-.63,0-1.32.48-1.31.33,0-.32.5-.59,1-.7a.17.17,0,0,0,.13-.14c0-.22.1-.66.18-.66s.16.46.18.68a.15.15,0,0,0,.14.15c.67.13,1,.46,1,.59,0,.33-.53-.27-1.31-.26Zm3.52-3.17c-1,0-2.11-.56-2.11-1.54a2.53,2.53,0,0,1,1.92-2.22c1.35-.26,2.78-.07,2.81.91a2.72,2.72,0,0,1-2.59,2.85Z" transform="translate(0 -21.21)"/></g></svg>