<svg id="Layer_1" data-name="Layer 1" xmlns="http://www.w3.org/2000/svg" viewBox="0 0 300.6 258.16"><defs><style>.cls-1{fill:#f1f5f9;}.cls-2,.cls-4{fill:#f63;}.cls-3,.cls-5{fill:#003ffc;}.cls-3,.cls-4{stroke:#000;stroke-miterlimit:10;stroke-width:0.25px;}</style></defs><g id="MAN"><g id="SHADOW"><path d="M95.2,142.2c23.4-6.2,79.6-4.6,101.2.2,5.1,1.1,4.4-1.2,0-2.2-27.1-6.3-81.7-4.9-101.7-.1-6.5,1.7-5.3,3.7.5,2.1Z"/><path d="M129.3,170.8c9.1-6,20.4-5.6,31.6.2,1.5.8,4.1-.4,0-2.2-10.7-4.9-21.3-6.5-32.1,0-3.9,2.3-1.9,3.6.5,2Z"/><path d="M96.8,146.4c23.4-7,75.8-5,97.6-.2,4.4.9,4.6-1,0-2.2-25.4-6.4-76.6-5.5-98.1.4-4.5,1.2-5.2,3.3.5,2Z"/><path d="M100.7,149.5c23.4-7,68.3-4.6,90.1.1,4.4.9,4.6-1,0-2.2-25.4-6.4-69.2-5.9-90.6.1-4.5,1.2-5.2,3.3.5,2Z"/><path d="M104.7,152.4c23.4-7,60.4-4.3,82.2.4,4.4.9,5.1-1,0-2.2-25.5-6.2-61.3-6.2-82.7-.3-4.4,1.3-5.1,3.4.5,2.1Z"/><path d="M124.3,155.8c-11.9,5.6-22.5,13.4-29.5,13.4-6.7,0-5.5,2.4.5,2,8.8-.5,19-8.1,30-13.5a5,5,0,0,1-1-1.9Z"/><path d="M196.5,169.2c-8.1-.1-17.4-6.2-27.7-11.5a8.47,8.47,0,0,1-.4,1.7c11.2,5.7,20.9,12.6,28.1,12C201.7,171,201,169.3,196.5,169.2Z"/><path d="M123.5,159.7c-10.8,5.5-20.3,12.7-27,12.8s-5.5,2.4.5,2c8.4-.5,17.4-7.4,27.3-12.6a2.3,2.3,0,0,1-.8-2.2Z"/><path d="M196.1,173.1c-8.4-.1-17.9-6.9-28.4-12.5a1.61,1.61,0,0,1-.6,1.3l-.2.2c11.6,5.9,21.6,13.8,29.1,13.1,5.2-.4,4.5-2.1.1-2.1Z"/><path d="M125.4,163.7a2.28,2.28,0,0,1-.3-1.1c-10.2,5.4-18.8,12.9-26.9,13.1-6.7.2-5.5,2.3.5,2,8.2-.4,17.5-8,27.5-13.3a1.39,1.39,0,0,1-.8-.7Z"/><path d="M194.9,176.4c-8-.1-16.9-6.2-26.7-11.6a1.82,1.82,0,0,1-1.4,1.6c11.4,5.7,21.7,12.7,28.1,12.2,5.2-.5,4.4-2.2,0-2.2Z"/><path d="M105.5,179.8c13.8-.8,20.5-16.8,38.9-17.2,19.8-.4,31.8,21.9,49.7,21.1,5.2-.2,4.5-2.2,0-2.2-17.5-.1-31.6-22-49.4-21.8-17.2.2-28.8,18-39.7,18.1-6.7,0-5.5,2.4.5,2Z"/></g><path id="NECK" class="cls-1" d="M133.8,66.5a23.77,23.77,0,0,0,2.4-5.1c3.9,1.6,9.9.7,13.1-1.2.5,2.1,1.5,5.1,1.7,5.9-2.7,6.4-13.4,8.1-17.2.4Z"/><g id="SHIRT"><path id="SHIRT-2" class="cls-2" d="M172.9,91.6c.1-1.2,5.8-4.4,4.9-5.6s-5.3,4-5.6,3.1c-.1-.4-.5-1.2-.4-1.4,1.4-2.1,2.3-6.6,1.5-5.9-1.1.8-.7,2.4-2.1,3.9-.4.5-.4-.1-.9-.9-.4-.5.9-4.9-.7-5.5-.7-.2-.6,1.7-.9,2.8-.5,1.6-.9,3.3-.7,3.4,1.3,1.1,1.8,4.3,1.9,5.9,1.1,9.3-2.9,34.7-4.3,34.6-15.5-.6-30-.7-40.2,1.2-.6.1-5-31.2-4.2-32.6.4-5.8,1.9-6.9,2.8-8.8a13.14,13.14,0,0,1-.9-3.2c-.2-1.3-.2-2.9-.9-3-1.9-.2.2,5.7-.7,6.2-1.5.8-3.1-4.5-3.8-3.6-1,1.4.8,3.7,2.2,5.3.4.4-.3,2.5-.9,3.7a1,1,0,0,1-1.5.5L110,87.4a.54.54,0,0,1-.2-.8c1.8-3.1,9.7-19.3,20-20.4a1,1,0,0,1,.8.5c4,9.7,17.3,11.6,23.1-.1a1.45,1.45,0,0,1,1-.7c11.5-.7,20.4,7.2,27.4,18.3a1,1,0,0,1-.2,1.3c-.3.4-7.6,7.3-8.9,7.9-.2.3-.2-1.1-.1-1.8Z"/><path id="SHIRT-3" d="M132.7,62.1c-16.1.7-23.4,17.6-26.8,24.6a2.07,2.07,0,0,0,.8,2.6l10.1,5.9a3.09,3.09,0,0,1,1.5,2.3,350.16,350.16,0,0,1,1.9,38.4,471.61,471.61,0,0,0,50.7.4c.3-12.1,1.5-25.4,3.3-39.6L186.3,87a1.72,1.72,0,0,0,.4-2.3c-8.9-15-19.2-23.1-34.1-22.7C149.1,71.9,136.1,76.6,132.7,62.1Zm40.2,29.5c.1-1.2,5.8-4.4,4.9-5.6s-5.3,4-5.6,3.1c-.1-.4-.5-1.2-.4-1.4,1.4-2.1,2.3-6.6,1.5-5.9-1.1.8-.7,2.4-2.1,3.9-.4.5-.4-.1-.9-.9-.4-.5.9-4.9-.7-5.5-.7-.2-.6,1.7-.9,2.8-.5,1.6-.9,3.3-.7,3.4,1.3,1.1,1.8,4.3,1.9,5.9,1.1,9.3-2.9,34.7-4.3,34.6-15.5-.6-30-.7-40.2,1.2-.6.1-5-31.2-4.2-32.6.4-5.8,1.9-6.9,2.8-8.8a13.14,13.14,0,0,1-.9-3.2c-.2-1.3-.2-2.9-.9-3-1.9-.2.2,5.7-.7,6.2-1.5.8-3.1-4.5-3.8-3.6-1,1.4.8,3.7,2.2,5.3.4.4-.3,2.5-.9,3.7a1,1,0,0,1-1.5.5L110,87.4a.54.54,0,0,1-.2-.8c1.8-3.1,9.7-19.3,20-20.4a1,1,0,0,1,.8.5c4,9.7,17.3,11.6,23.1-.1a1.45,1.45,0,0,1,1-.7c11.5-.7,20.4,7.2,27.4,18.3a1,1,0,0,1-.2,1.3c-.3.4-7.6,7.3-8.9,7.9-.2.3-.2-1.1-.1-1.8Z"/><path d="M134.6,75.1c-.1-1.5,3.4,3,11.1.6,7.1-2.1,9.5-7.7,9.9-5.9.4,2.1-2.8,5.9-8.9,7.7-6.4,1.8-11.8.4-12.1-2.4Z"/></g><path id="NECK-2" d="M151.3,56.9a19.81,19.81,0,0,1-17.5,1.3c-.4,3.2-2.2,5.8-4.1,8.2,4.8,11.1,19.5,10.2,24.7-.3-.5-1.8-2.6-4.9-3.1-9.2Zm-17.5,9.6a23.77,23.77,0,0,0,2.4-5.1c3.9,1.6,9.9.7,13.1-1.2.5,2.1,1.5,5.1,1.7,5.9-2.7,6.4-13.4,8.1-17.2.4Z"/><g id="HEAD"><path d="M151.7,59.7c3.7-3,6.1-7.8,5.4-14.1,4.8-1.1,5-11-.4-10.5.8-8.2-.1-14.3-2.9-16.7-4.6-3.8-9.2-2.9-12.6-2.5-3,.4-14.3,4.8-13.8-1.2-2.1.8-1.2,5,.8,5.9-1.7.4-4.2.4-4.6-1.7-.8,1.7,0,3.8,2.1,3.8-.4,1.2-2.9.8-2.9-.4a2,2,0,0,0,.8,2.9A57.32,57.32,0,0,0,125.3,39c-5.6,2-3,11.4,1.7,10.5.5,5.5,2.9,9.2,6.1,11.5,4.5,3.4,14.2,3.4,18.6-1.3Zm4.9-21.6c2.5-.1,1.7,4.6,0,4.6Zm-30.5,3.7a34.69,34.69,0,0,1,.4,4.2C124,46.4,124,41.4,126.1,41.8Zm12.5,8.4a24.49,24.49,0,0,0,8-.8c0,.8-.8,2.5-4,2.5C139.1,52.3,138.7,51,138.6,50.2ZM128.2,26.8a9.55,9.55,0,0,0,2.9-.4c.8,2.9,5.4,6,5.4,5,0-.8-3.4-3.4-3.8-5.4,1.7,2.9,8.4,5.9,9.2,4.6.1-.8-6.3-2.9-6.3-5,3.8,2.9,8.4,2.1,10.4,4.2,1.3,1.3.8-2.5-2.1-3.8,4.2.3,7.9,1.2,9.2,5,.5,1.4,0,2.5,0,5-5.9-.4-9.1.1-9.6,1.7-.1,2.5,3.8-.8,9.2.8.2,3.1.4,6.2.4,9.1a19.68,19.68,0,0,0-8.4-1.6c-.5.1-.5-6.6-1.7-6.7-1.5-.1,0,6.9-.4,7.1l-2.9.4c0-2.9,0-9.2-2.5-9.6-2.1-.3-8.1,1.1-8.4,1.2-.6-5.3-1-9.9-.6-11.6Zm2.5,23a72.34,72.34,0,0,1-1.2-8.8c2.2-1.4,6.3-2.1,7.1-1.2s1.2,3.3,1.2,7.5a23.16,23.16,0,0,0-7.1,2.5Z"/><path class="cls-1" d="M156.6,38.1c2.5-.1,1.7,4.6,0,4.6V38.1m-30.5,3.7a34.69,34.69,0,0,1,.4,4.2C124,46.4,124,41.4,126.1,41.8Zm12.5,8.4a24.49,24.49,0,0,0,8-.8c0,.8-.8,2.5-4,2.5C139.1,52.3,138.7,51,138.6,50.2ZM128.2,26.8a9.55,9.55,0,0,0,2.9-.4c.8,2.9,5.4,6,5.4,5,0-.8-3.4-3.3-3.8-5.4,1.7,2.9,8.4,5.8,9.2,4.6.1-.8-6.3-2.9-6.3-5,3.8,2.9,8.4,2.1,10.4,4.2,1.3,1.3.8-2.5-2.1-3.8,4.2.3,7.9,1.2,9.2,5,.5,1.4,0,2.5,0,5-5.8-.4-9.1.1-9.6,1.7-.1,2.5,3.8-.8,9.2.8.2,3.1.4,6.2.4,9.1a19.68,19.68,0,0,0-8.4-1.6c-.5.1-.5-6.6-1.7-6.7-1.5-.1,0,6.9-.4,7.1l-2.9.4c0-2.9,0-9.2-2.5-9.6-2.1-.3-8.1,1.1-8.4,1.2-.6-5.3-1-9.9-.6-11.6Zm2.5,23a72.34,72.34,0,0,1-1.2-8.8c2.2-1.4,6.3-2.1,7.1-1.2s1.2,3.3,1.2,7.5a23.16,23.16,0,0,0-7.1,2.5Z"/><path d="M132.4,42.2a8.85,8.85,0,0,1,2.9-.4C135.7,44.3,132.6,44.7,132.4,42.2Z"/><path d="M147.3,40.3a6.29,6.29,0,0,1,3.4.2C150.2,42.8,147,42.8,147.3,40.3Z"/></g><path id="RIGHT_HEND" data-name="RIGHT HEND" d="M193.4,107.3c-.6-6.3-4.6-13.6-9.2-22.3l-13.1,8.1c2.1,3.7,4.8,7.3,6.4,11l-6.8,4.6a16.41,16.41,0,0,0,.6,8.8c.1.3,11.7-.4,15.2-1.4C191.4,114.7,193.9,111.9,193.4,107.3Zm-20.3,8.2a23.7,23.7,0,0,1-.2-5.4,66.82,66.82,0,0,1,10.6-6.4c1-.5.8-1.9-1-1.7a15.92,15.92,0,0,0-3.3,1.2l-4.6-8.3c2.9-2,5.9-4.1,8.6-5.6,5.3,10.3,6.8,13.6,7.6,18.8,1,7.2-17.6,7.5-17.7,7.4Z"/><path id="RIGHT_HEND-2" data-name="RIGHT HEND-2" class="cls-1" d="M173.1,115.5a23.7,23.7,0,0,1-.2-5.4,66.82,66.82,0,0,1,10.6-6.4c1-.5.8-1.9-1-1.7a15.92,15.92,0,0,0-3.3,1.2l-4.6-8.3c2.9-2,5.9-4.1,8.6-5.6,5.3,10.3,6.8,13.6,7.6,18.8,1,7.2-17.6,7.5-17.7,7.4Z"/><path id="LEFT_HEND" data-name="LEFT HEND" class="cls-1" d="M118.3,115.5c-.1,0-17.1,1.3-16-5.9.8-5.2,2.3-8.5,7.6-18.8,2.7,1.5,5.7,3.6,8.6,5.6l-4.6,8.3a18.61,18.61,0,0,0-3.3-1.2c-1.8-.2-2,1.2-1,1.7,2.1,1.1,8.7,4.3,8.8,4.3a25.52,25.52,0,0,1-.1,6Z"/><path id="LEFT_HEND-2" data-name="LEFT HEND-2" d="M115.5,105.7c1.6-3.7,4.3-7.3,6.4-11l-13.1-8.1c-4.7,8.7-8.6,16.1-9.2,22.3-.4,4.6,1.9,8.2,7.1,8.8,3.7.5,13.8.2,13.8.2a17.65,17.65,0,0,0,.4-9.4Zm2.8,9.8c-.1,0-17.1,1.3-16-5.9.8-5.2,2.3-8.5,7.6-18.8,2.7,1.5,5.7,3.6,8.6,5.6l-4.6,8.3a18.61,18.61,0,0,0-3.3-1.2c-1.8-.2-2,1.2-1,1.7,2.1,1.1,8.7,4.3,8.8,4.3a25.52,25.52,0,0,1-.1,6Z"/><g id="RIGHT_LEG" data-name="RIGHT LEG"><path id="RIGHT_ANKLE" data-name="RIGHT ANKLE" d="M120.4,151.3c3,4,3.8,6.4,4.9,11.2l9.6-5a20.94,20.94,0,0,0-4-11.3l-10.5,5.1Zm3.9,1.6,4.8-2.2a10.85,10.85,0,0,1,2.1,5.9l-4.3,2.1a12.72,12.72,0,0,0-2.6-5.8Z"/><path d="M129.3,166.4c.7-7.1-1.1-14.4-3.4-20.4,34.8-20,63.1-44.5,70.5-17C201.2,147,169.1,151.2,129.3,166.4Z"/><path class="cls-3" d="M132.7,160.9a51.45,51.45,0,0,0-2.1-13.9c6.6-3.5,25.1-16,39.6-22.4,11.1-4.9,19.1-6.4,21.8,2.6,2.9,9.8-1.5,13.4-13,18.2-9.6,4.1-45.7,15.8-46.3,15.5Z"/><path d="M173.4,144.8c.2,1.6,6.7-1.4,11.8-4.4,4.3-2.5,6.4-5.9,5.8-7-.9-1.6-.9,2.5-6.7,5.8-8.7,4.9-11,4.5-10.9,5.6Z"/><path d="M167.2,129.6c-.4-1.6-6.1,2.1-11.5,4.6s-20.7,11.7-20.2,12.9c.7,1.7,4.6-3.5,21-11.6,8.9-4.4,10.9-5,10.7-5.9Z"/><path d="M105.8,176.9c-5.1-2.7-6.1-11.6-5.2-17.3,1-6.2,17.3-9,21.1-9,3.1,0,6.3,13.4,4.1,15-9,6.8-17.1,12.8-20,11.3Z"/><path class="cls-4" d="M104.7,160.3c1.2-3,12.3-6.9,13.9-6.4,2.4.6,4.2,8.3,3.7,9.9a5,5,0,0,1-1.1,1.2c-.2.2-1.8-4.6-2.8-4s1.5,5,1.1,5.4a11.49,11.49,0,0,1-1,.8c-.3.2-2.1-5.4-3-4.7-1.1.9,1.7,5.6,1.1,6s-.4.2-1,.6c-.3.2-2.3-6.5-3.2-5.1-.7,1.2,1.8,5.9,1.1,6.4a4.13,4.13,0,0,0-1.1.7c-.3.3-1.8-6.7-2.8-5.7-1.3,1.3,1.7,6.5.8,6.9-1.7.7-2.9,1.3-3.3,1.1-1.9-1.3-3.1-11.4-2.4-13.1Z"/><path id="RIGHT_ANKLE-2" data-name="RIGHT ANKLE-2" class="cls-1" d="M124.3,152.9l4.8-2.2a10.85,10.85,0,0,1,2.1,5.9l-4.3,2.1a12.72,12.72,0,0,0-2.6-5.8Z"/></g><g id="LEFT_LEG" data-name="LEFT LEG"><path id="LEFT_ANKLE" data-name="LEFT ANKLE" d="M162.9,149.9a20.94,20.94,0,0,0-4,11.3l9.6,5c1.1-4.9,1.9-7.2,4.9-11.2l-10.5-5.1Zm5.2,13.1-5.4-2.7a10.85,10.85,0,0,1,2.1-5.9l5.7,2.1c-1.8,2.1-2.1,4-2.4,6.5Z"/><path id="LEFT_ANKLE-2" data-name="LEFT ANKLE-2" class="cls-1" d="M168.1,163l-5.4-2.7a10.85,10.85,0,0,1,2.1-5.9l5.7,2.1c-1.8,2.1-2.1,4-2.4,6.5Z"/><path d="M162,166.6c-.8-6.9,1.5-13.1,5.6-18.8-38.2-18.7-64.4-43.9-70.5-17C92.9,149.8,121.2,153.1,162,166.6Z"/><path class="cls-3" d="M158.1,161.7c-18.6-6.4-33.6-10.6-43.7-14.5-11.6-4.5-15.9-8.4-13-18.2,2.7-9.1,10.2-8,20.7-2,13.3,7.7,39.8,21.7,39.8,21.7-1.5,3.5-3.6,8.8-3.8,13Z"/><path d="M156.1,159.2h0a.72.72,0,0,0,.9-.5,30.5,30.5,0,0,1,2.1-7,.72.72,0,0,0-.5-.9h0a.72.72,0,0,0-.9.5,31.6,31.6,0,0,0-2.1,7A.94.94,0,0,0,156.1,159.2Z"/><path d="M148.5,144c-.3-.8-6.9-3.6-12.1-6.7-9.5-5.8-16.7-10.8-20.5-11.5-3.2-.7-3.7,1-2.6,1.3a19.34,19.34,0,0,1,8.5,3.1C139.1,141.5,149.8,147.3,148.5,144Z"/><path d="M186.2,178.2c5.1-2.7,6.1-11.6,5.1-17.3-1-6.2-17.3-9-21.1-9-3.1,0-6.3,13.4-4.1,15,9.1,6.8,17.2,12.9,20.1,11.3Z"/><path class="cls-4" d="M187.4,161.6c-1.2-3-12.3-6.9-13.9-6.4-2.4.6-4.2,8.3-3.7,9.9a5,5,0,0,0,1.1,1.2c.2.2,1.4-4.8,2.5-4.2s-1.1,5.2-.7,5.6a11.49,11.49,0,0,0,1,.8c.3.2,1.9-5.6,2.9-4.9,1.1.9-1.5,5.8-1,6.2s.4.2,1,.6c.3.2,2-6.8,3.2-5.1.8,1.1-1.8,5.9-1.1,6.4a4.13,4.13,0,0,1,1.1.7c.3.3,1.7-6.3,2.7-5.3,1.3,1.3-1.6,6.1-.6,6.4,1.7.7,2.9,1.3,3.3,1.1,1.6-1.1,2.8-11.3,2.2-13Z"/></g><path id="LAPTOP" d="M119.3,86.1l52.6-.2a3.35,3.35,0,0,1,3.1,3.5l-2.5,34.1a3.35,3.35,0,0,1-3.1,3.5l-47.6.3a3.35,3.35,0,0,1-3.1-3.5l-2.5-34.1A3.38,3.38,0,0,1,119.3,86.1Z"/><path id="LAPTOP-2" class="cls-1" d="M122.5,89.2,168,89a2.8,2.8,0,0,1,2.7,2.9l-2.2,28.5a2.8,2.8,0,0,1-2.7,2.9l-41.2.2a2.8,2.8,0,0,1-2.7-2.9L119.7,92a2.93,2.93,0,0,1,2.8-2.8Z"/></g><g id="PLANET"><g id="LEFT_CRATER" data-name="LEFT CRATER"><path d="M76.9,143.2c-1.8-2.2-7.1,1.4-12.7,6.6S55,160.6,57,162.7s8.4-.4,14-5.7,7.4-11.9,5.9-13.8Zm-9.7,11.7c-2.3,2.1-4.6,3.8-5.1,2.9-.2-.4,1.3-2.7,3.6-4.8s4.4-3.3,4.6-2.9C70.8,150.9,69.4,152.8,67.2,154.9Z"/><path d="M65.8,166.5a1,1,0,0,0-.6,1.4c.2.4.5.8,1.6.4,3.4-1.2,9-6.5,9.1-6.6.7-.8.6-1.3.2-1.8a1.13,1.13,0,0,0-1.5.4c-.4.3-5.6,5.1-8.8,6.2Z"/><path d="M60.8,168.5c-3.8,1.4-6.6-.8-7.7-1.5-.3-.2-1.1-1.1-1.9-.3-.3.3,0,.7.3,1.4.5,1.2,4.9,4.1,9.4,2.4.3-.1,1.1-.4,1.1-1.2s-.8-.9-1.2-.8Z"/><path d="M63.1,144.9c-.3-.6-1-.5-1.5-.2C58,146.3,50.2,157.5,50.5,162c0,.6.3,1.4,1,1.4s1.4-.2,1.5-1.2c.8-6.7,6.7-13.2,9.9-16,.2-.3.4-1,.2-1.3Z"/><path d="M66.7,141.5h0c.3.4.9.7,1.3.4,3.7-3.1,8.5-3.1,9.7-3.1a7.7,7.7,0,0,0,1.9-.1,1,1,0,0,0-.7-1.6,17.67,17.67,0,0,0-11.7,3,1.05,1.05,0,0,0-.5,1.4Z"/><path d="M83.3,146.3a.73.73,0,0,0,.4.8.85.85,0,0,0,1.1-.6c.8-2.2-.1-4.9-1-5.5a.73.73,0,0,0-1.2.7c.1.4.4,1,.4,1.1a4.21,4.21,0,0,1,.3,3.5Z"/><path d="M83.2,152.3l.3-.6a1.08,1.08,0,0,0,0-1.1.94.94,0,0,0-1.2-.5c-.3.1-1,1.4-1.3,1.8-.5.8,1.2,2.4,2.2.4Z"/></g><path d="M100.6,112.2a7.36,7.36,0,0,1,.1-6A125.34,125.34,0,0,0,24.4,206.7c-.8,6.3,3.1,7.7,3.5,2.7,4.6-44.7,33.2-80.8,72.9-96.9A1.24,1.24,0,0,0,100.6,112.2Z"/><path d="M271.6,197.8a125.25,125.25,0,0,0-79.7-93.5v.4a5.44,5.44,0,0,1,0,1.8,11.33,11.33,0,0,1-.6,4.1.35.35,0,0,1-.1.2c39.5,14.3,69.2,47.9,76.5,90.6.8,5.4,4.9,2.4,3.9-3.6Z"/><g id="CENTER_CRATER" data-name="CENTER CRATER"><path d="M145.7,194.1c-.9-3.8-5.9-6.5-10.7-4.7-3.9,1.5-7.2,5.6-7.4,9-.2,3.9,5.7,5.9,10.7,4.7s8.3-5.2,7.4-9ZM137,192c.6-1.4,6-1.6,6.4,2.6.1,1.9-.9,2.6-.9,1.1,0-.8.1-2.2-1.1-3-2.8-1.9-4.7-.1-4.4-.7Zm-2.8,2.4c-.2-1.7,6-2.8,6.6,2.5.2,1.9-1.4,2.5-1.4,1,0-.8.1-2.2-1.1-3-2.7-1.8-4,.2-4.1-.5Zm2.2,3.9a1.2,1.2,0,0,1-1.2-1.1,1.2,1.2,0,0,1,2.4,0A1.2,1.2,0,0,1,136.4,198.3Z"/><path d="M127.3,189.1c1.4-3.1,8.3-6.7,13.5-5.1.8.3,1.4-.7,1.2-1.4-.1-.5-.4-.8-2-1-5.9-.6-10.9,1.4-14.2,5.4-.8,1-1.2,1.3-.7,1.9.2.3,1.7,1.3,2.2.2Z"/><path d="M150.1,186.8c-.6-.2-1.3.2-.9,1a3.78,3.78,0,0,0,.8.9,4.37,4.37,0,0,1,1.2,3.3.64.64,0,0,0,.6.6.82.82,0,0,0,.9-.9c.1-2.3-1.6-4.6-2.6-4.9Z"/><path d="M129.9,207c-4,.1-6-2.9-6.7-3.9-.2-.3-.7-1.4-1.7-.9-.4.2-.4.7-.2,1.4a8.73,8.73,0,0,0,8.1,5.3,1.34,1.34,0,0,0,1.4-.8.87.87,0,0,0-.9-1.1Z"/><path d="M147.5,203.5a10.88,10.88,0,0,1-7.5,4.4c-.3,0-1.7-.1-1.8,1-.1.4.4.8,1.1.9,1.3.1,6.7-.3,9.4-4.8.2-.3.6-1.3,0-1.9s-1,.1-1.2.4Z"/><path d="M117.9,197.2c.4-.4-.2-1.1-.8-1.3-.4-.1-.7-.1-1.2.8-1.8,3-1.4,6.7,1,10.6.5.9.7,1.2,1.3,1.2a.72.72,0,0,0,.5-1.2c-1.6-2.3-3-7.8-.8-10.1Z"/><path d="M150.5,208.2c-.5.2-.3,1.1.1,1.5s.6.3,1.4-.2c2.9-1.9,4.2-5.4,3.9-9.9-.1-1-.1-1.4-.6-1.6a.74.74,0,0,0-1,.9c.4,2.7-.8,8.3-3.8,9.3Z"/></g><g id="RIGHT_CRATER" data-name="RIGHT CRATER"><path d="M225.4,150.4h0c.2.4.9.9,1.3.6,3.9-3.2,9.4-1.7,10.6-1.5.9.1,1.9.4,2.1.2.6-.4.2-1.2-.6-1.4-3.8-1-8.7-1.4-12.8,1.1-.6.2-.9.6-.6,1Z"/><path d="M228.6,171.6c-.2-.6-1.1-.6-1.5-.3s-.6.6-.1,1.6c1.7,3.2,5.1,5.5,9.4,7.1,1,.4,1.4.3,1.8-.2a1,1,0,0,0-.7-1.4c-2.5-.7-7.9-3.7-8.9-6.8Z"/><path d="M252.9,170.5c.4,4-2.5,6.2-3.4,7-.2.2-1.3.8-.8,1.8.2.4.9.5,1.4.3,1-.4,5.2-3.9,4.7-8.6a1.46,1.46,0,0,0-.9-1.4c-.8-.3-1,.5-1,.9Z"/><path d="M223.5,155.6c.2-.2-.1-.5-.2-.6a1.07,1.07,0,0,0-1.2.1,2.75,2.75,0,0,0-.1,3.7c.4.4,1.2.4,1.3-.1-.1-.3-.7-2.3.2-3.1Z"/><path d="M218.1,163.4c-2.7-3-1.6-6.4-1.3-7.7.1-.3.6-1.4-.4-1.9-.4-.2-.6.3-1.2.7-1,.9-2.1,6.1,1.2,9.6.2.2.8.9,1.5.6a.77.77,0,0,0,.2-1.3Z"/><path d="M245.6,158.2c-5.2-5.8-11.8-7.2-15.9-4.7-5,3-3.8,10.5,2.8,16.4,5.7,5,12.3,7.3,15.9,4.7C252.4,171.8,250.8,164,245.6,158.2Zm-9.1,9.4c-.4.3-1.1,0-1.5-.6a1.19,1.19,0,0,1,.1-1.6c.4-.3,1.1,0,1.5.6S237,167.4,236.5,167.6Zm3.2-.5a4.26,4.26,0,0,0-1.8-3.1c-2.7-1.9-4.3-.9-4.1-1.5.6-1.2,5.9-.5,6.8,3.6C241.1,168.2,239.7,168.6,239.7,167.1ZM247,170c-1.1,3.7-7.8,2.8-5.2,1.8,1.3-.5,6.2-1.7,2.2-8.4-3.6-6.1-10.9-7.2-9.7-7.5,5.3-1.2,14.8,7,12.7,14.1Z"/></g><path d="M40.7,189.1c-.4-5.7.6-8,3.2-11.8.4-.6-1.2-.7-1.7-.2-2.5,2.5-3.7,7.3-3.3,11.7.2,1.7,1.9,2,1.8.3Z"/><path d="M44.9,187.5c-.1-2.2.2-3.1,1.3-4.1.6-.5-1-1.1-1.6-.7a3.77,3.77,0,0,0-1.3,4c.4,1.5,1.6,1.4,1.6.8Z"/><path d="M77.2,202.7c2.4-4.6,3.7-6.3,7.6-8.5.7-.4-.6-1.5-1.3-1.1-2.6,1.5-6.5,4.9-7.7,8.7-.4,1,.9,1.8,1.4.9Z"/><path d="M69.3,201.5c1.9-3.4,2.9-4.9,5.5-7.1.6-.5-.7-1.7-1.3-1.1a24.31,24.31,0,0,0-5.6,7.2C67.4,201.5,68.8,202.5,69.3,201.5Z"/><path d="M87.3,200.5c2.6-2.9,3.8-4.2,6.9-5.8.7-.4-.4-1.8-1-1.4a25.31,25.31,0,0,0-7,5.9c-.8.9.3,2.1,1.1,1.3Z"/><path d="M103.1,194.6a13.76,13.76,0,0,1,3.9-3.7c.7-.4-.4-1.8-1-1.4a16.36,16.36,0,0,0-4,3.8c-.8,1,.4,2.2,1.1,1.3Z"/><path d="M64.1,172.4c-3.5,1.7-5.1,2.5-8.5,2.8-.8.1-.3,1.8.4,1.7a26.22,26.22,0,0,0,8.7-2.9c1-.5.4-2.1-.6-1.6Z"/><path d="M217.7,193.5a13.76,13.76,0,0,1,3.9-3.7c.7-.4-.4-1.8-1-1.4a14.72,14.72,0,0,0-4,3.8c-.8.9.3,2.2,1.1,1.3Z"/><path d="M240.9,198.9c1.4-1.4,1.4-1.7,2.7-3,.9-.9-.1-2.3-1-1.4a20.94,20.94,0,0,0-2.9,3.1c-.6,1,.5,2.2,1.2,1.3Z"/><path d="M226.7,198.9c.8-.9,1.4-1.6,1.7-1.9,1-1.1-.1-2.3-1-1.4a10.12,10.12,0,0,0-1.8,2.1c-.8.9.3,2.1,1.1,1.2Z"/><path d="M232.6,195.3c.8-.9,1.4-1.6,1.7-1.9,1-1.1-.1-2.3-1-1.4a10.12,10.12,0,0,0-1.8,2.1c-.8.8.3,2,1.1,1.2Z"/></g><g id="BLUE_PLANET" data-name="BLUE PLANET"><path d="M281,98.9a19.6,19.6,0,1,0,19.6,19.6A19.63,19.63,0,0,0,281,98.9Zm0,35.5a15.9,15.9,0,1,1,15.9-15.9A15.88,15.88,0,0,1,281,134.4Z"/><path class="cls-5" d="M281,134.4a15.9,15.9,0,1,1,15.9-15.9A15.88,15.88,0,0,1,281,134.4Z"/><path d="M277.4,126.9a19.13,19.13,0,0,1,5.2-2.9,37.18,37.18,0,0,1,6.5-1.9.87.87,0,1,0-.4-1.7,33.38,33.38,0,0,0-6.8,2.1,19.44,19.44,0,0,0-5.8,3.2.89.89,0,0,0,1.3,1.2Z"/><path d="M278.6,121c.9,0,.6-1.6-.4-1.5a7.28,7.28,0,0,0-4.6,2.1c-.7.7.4,1.8,1.1,1.2A5.92,5.92,0,0,1,278.6,121Z"/><path d="M276.7,114.9c.9.1,1-1.5,0-1.6a5.07,5.07,0,0,0-3.6.8.76.76,0,0,0,.6,1.4A8.39,8.39,0,0,1,276.7,114.9Z"/><path d="M279.7,129.4c-.9,0-.5,1.6.4,1.5,1.8-.2,9-3.7,10.2-4.9.7-.7-.4-1.8-1.1-1.2-.1.3-7.9,4.6-9.5,4.6Z"/><path d="M289.7,110.1a.73.73,0,0,0-.4-1.4c-1.8.4-4.7,2.8-6,4-.7.7.4,1.8,1.1,1.2a41.36,41.36,0,0,1,5.3-3.8Z"/><path d="M268.8,119.7c-.9.1-.7,1.6.2,1.6a5.14,5.14,0,0,0,3.4-1.4.8.8,0,0,0-.9-1.3A6.26,6.26,0,0,1,268.8,119.7Z"/><path d="M288.2,114.7c-.9.1-.6,1.7.3,1.5a4.23,4.23,0,0,0,2.6-1.2.75.75,0,0,0-.9-1.2,4.14,4.14,0,0,1-2,.9Z"/><path d="M292.4,119.2c-.8.5.2,1.8,1,1.3a4.36,4.36,0,0,0,1.9-2.2.81.81,0,0,0-1.4-.8C293.5,118.2,293.5,118.6,292.4,119.2Z"/><path d="M280.1,109.5c-.8.6.1,1.6,1,1.3,1.2-.4,1.2-1,1.2-1.4,0-1-.9-1.6-1.4-.8S280.3,109.4,280.1,109.5Z"/><path d="M273.3,108.9c.8-.2.3-1.3-.5-1.4-1.1-.1-1.3.4-1.4.7-.2.7.4,1.5,1,1.1a4.93,4.93,0,0,1,.9-.4Z"/><path d="M270.8,112c.1-.2.3-1.2-.4-1.2-.9,0-1.1.4-1.2.7-.3.7.4,1,.7,1a1.15,1.15,0,0,0,.9-.5Z"/></g><g id="STARS"><circle cx="194.8" cy="3.7" r="3.7"/><circle cx="238.2" cy="3.7" r="2.3"/><circle cx="3.7" cy="104.3" r="3.7"/><circle cx="50.7" cy="100.9" r="2.3"/><circle cx="17.1" cy="117.7" r="2"/><circle class="cls-2" cx="174.6" cy="13.6" r="2.7"/><circle class="cls-2" cx="84" cy="90.5" r="1.5"/><circle cx="233.8" cy="59.6" r="2.3"/><circle class="cls-2" cx="267.4" cy="36.7" r="2.7"/><circle cx="82.3" cy="14.7" r="2.7"/></g><g id="ORANGE_PLANET" data-name="ORANGE PLANET"><path class="cls-2" d="M50.7,79.6A25.8,25.8,0,1,1,76.5,53.8,25.8,25.8,0,0,1,50.7,79.6Z"/><path d="M36.1,58.2a.7.7,0,1,0-.5,1.3c3.2,1.5,24.2.2,25.5-.5,1.1-.6.8-1.7-.2-1.6-1.9.6-22.1,1.7-24.8.8Z"/><path d="M52.6,47.5c-.9.1-1,1.7-.1,1.6,3.8-.3,17.7-2.7,19.3-3.4,1.1-.5.5-1.8-.4-1.5-2.2.8-16.1,3-18.8,3.3Z"/><path d="M33.1,49.8c-.9-.1-1.4,1.4-.4,1.5a66.71,66.71,0,0,0,11.7.9c1.2,0,.9-1.6-.1-1.6a89.39,89.39,0,0,1-11.2-.8Z"/><path d="M58.2,63.6c-.9,0-1.1,1.5-.2,1.6a22.12,22.12,0,0,0,6.3-.4c1.2-.2.6-1.8-.3-1.6a26.89,26.89,0,0,1-5.8.4Z"/><path d="M41.6,40.3c.9,0,1.1-1.6.1-1.6a20.32,20.32,0,0,0-6.2.5c-1.2.2-.6,1.8.3,1.6a34.81,34.81,0,0,1,5.8-.5Z"/><path d="M45.3,43.6c-.9,0-1.2,1.5-.2,1.6a17.47,17.47,0,0,0,6.3-.2c1.2-.2.7-1.7-.2-1.6a22.68,22.68,0,0,1-5.9.2Z"/><path d="M44,74.5c-.9-.2-1.1,1.2-.2,1.6,2.9,1.1,8.7.9,10.7.1,1.2-.5.7-1.7-.2-1.6-4,.4-6,.9-10.3-.1Z"/><path d="M40.1,32c-.9.1-.9,1.7.1,1.6,3.3-.2,6.7-.5,9.7-.7,1.2-.1.4-1.8-.5-1.5A78.82,78.82,0,0,0,40.1,32Z"/><path d="M55.2,38.2c-.9.3-.7,1.9.3,1.6a50.88,50.88,0,0,1,12.1-2.3c1.2-.1.1-1.9-.7-1.4a45.89,45.89,0,0,0-11.7,2.1Z"/><path d="M50.7,24.5A29.4,29.4,0,1,0,80.1,53.9,29.45,29.45,0,0,0,50.7,24.5Zm0,55.1A25.8,25.8,0,1,1,76.5,53.8,25.8,25.8,0,0,1,50.7,79.6Z"/><path d="M75.1,40c.4,1.3.7,2.3,1,3.5,10.1,4.4,16.2,9.9,15.5,15-1.3,8.4-21.2,12.3-44.4,8.7S6.3,53.9,7.5,45.5c.8-5.4,9.3-8.9,21.4-9.8,1.1-.9,2.2-2,3.4-3-15.8.5-27.5,5.2-28.6,12.5-1.6,10.1,17.7,21.4,43,25.4s47.2-1.1,48.7-11.2c1.1-6.8-7.2-14.2-20.3-19.4Z"/></g><g id="CAT"><path class="cls-1" d="M231.7,122.4a12.47,12.47,0,0,1-10.6-4.3c-4-4.4-4.1-15.2,4.3-14.4a3.44,3.44,0,0,0-3.4-1.9c-6.1.2-6.8,6.2-6.1,10.6a9.72,9.72,0,0,1-3.8-2.2c3.1-7.9,6.2-17.7,4-18.9-.5,4.5-3.8,12.9-7,21.2a.51.51,0,0,1-.5.4,4.33,4.33,0,0,0-.5-.1c-1-.2-.7,0,0-7.3.4-4.8,1.1-14.5,1.6-15.2-2.2.4-2.9,9.3-3.2,16.9a3.47,3.47,0,0,1-1.8-2.5,36.64,36.64,0,0,1-.4-4.2c.1-2.4,0-5.7.2-8.2-.9,1.8-1,3.6-1.3,6.1-.2,2-1.4,9.8-1.9,9.8-1.1,0-.8-.8-.7-1.4.6-5.6,1.1-19.2,1.4-20.3s1.5-1.3,3.5-.5c0,0,.1,0,0-.1-5.2-2.2-9.2-6.1-6.4-11.4,2.1-3.8,5.5-5.8,11.5-4.9,8.4.6,12.8,10.4,7.4,14.3-.9.6-3.2,2.4-3.2,2.4,3.6-1.4,4.3-1.4,5.9.3s2.7,5.1,4.6,9.4c1.8,4,4.4,8.8,5.6,14.2,1,4.5-.7,6-6,7.9,0,0,1,1.4,3.9,1.9,5.1.9,9.4-.9,8-10.4-.3-1.8,1.6-2.5,2-.2,1.6,9.3-2.2,12.5-7.1,13Z"/><path d="M204.4,74.2a2.8,2.8,0,1,0,2.8,2.8A2.73,2.73,0,0,0,204.4,74.2Zm0,5.5a2.2,2.2,0,1,1,2.2-2.2A2.22,2.22,0,0,1,204.4,79.7Z"/><path d="M212.7,75.2a2.8,2.8,0,1,0,2.8,2.8A2.73,2.73,0,0,0,212.7,75.2Zm0,5.5a2.2,2.2,0,1,1,2.2-2.2A2.22,2.22,0,0,1,212.7,80.7Z"/><circle cx="205" cy="77.9" r="1.4"/><circle cx="213.1" cy="79.1" r="1.4"/><path d="M209.4,80.7c-.5.6-.6,1-1.4,1s-.8-.5-1.3-1c-.4-.3.6-.6,1.3-.6S209.7,80.3,209.4,80.7Z"/><path d="M209.6,84.3c0,.3-.6,0-1.3,0s-1.3.3-1.3,0a1.3,1.3,0,0,1,2.6,0Z"/><path d="M239.4,106.6c-1-3.7-5.4-1.4-5.2,1,.2,2.9.7,4.9.3,7.4a3.72,3.72,0,0,1-4.4,3.1c4.5-1.6,4.8-8.4,2.7-13.4-.4-.9-4.4-8-7.2-13.9-2.5-5.2-3.6-6.4-5.5-7.2a7.1,7.1,0,0,0,1.2-1.3c1.4-2.1,2-5.2.2-7.6-.3,0,.6-8.8,0-10.9-.2-.8-5.7,4.9-5.7,4.9-3.9-1.3-7.7-2-11.2-1.2,0,0-5.3-6.1-5.8-5.7-.3.3-.9,10.1-1.2,10.1-1.3,2.7-2.2,5.8-.8,8.8a6.82,6.82,0,0,0,3.5,3.6,13,13,0,0,0-1.2,6.1c0,4.2.4,16.6.4,16.7-3,1.2-1.9,2.5,1,3.7,1.1.1,1.5-1,1.6-1.6a17.33,17.33,0,0,1,.8-1.8c.5,1.3,2.7,3,3.4,3.7-.1,1.6.1.2,0,2.1l-1.5,1c-1.1,1.6,4.5,4.3,5.6,2.7l.2-2.9c.1-.2.1-.3.2-.5,1.2.7,2.4,1.4,3.5,1.9-.1,0-.2,0-.2-.1-2.7-.7-3.4,2.7-1.8,3.3,2.6,1.1,7.1,4.7,9.8,5.4,14.9,3.9,17.9-2.8,18.5-7.7a29.2,29.2,0,0,0-1.2-9.7ZM219.1,67.1l-.1,5.7c-.1,0-2.7-2.7-2.7-2.7l2.8-3ZM199,65.3l2.8,3.1-3,2.6Zm32.7,57.1a12.47,12.47,0,0,1-10.6-4.3c-4-4.4-4.1-15.2,4.3-14.4a3.44,3.44,0,0,0-3.4-1.9c-6.1.2-6.8,6.2-6.1,10.6a9.72,9.72,0,0,1-3.8-2.2c3.1-7.9,6.2-17.7,4-18.9-.5,4.5-3.8,12.9-7,21.2a.51.51,0,0,1-.5.4,4.33,4.33,0,0,0-.5-.1c-1-.2-.7,0,0-7.3.4-4.8,1.1-14.5,1.6-15.2-2.2.4-2.9,9.3-3.2,16.9a3.47,3.47,0,0,1-1.8-2.5,36.64,36.64,0,0,1-.4-4.2c.1-2.4,0-5.7.2-8.2-.9,1.8-1,3.6-1.3,6.1-.2,2-1.4,9.8-1.9,9.8-1.1,0-.8-.8-.7-1.4.6-5.6,1.1-19.2,1.4-20.3s1.5-1.3,3.5-.5c0,0,.1,0,0-.1-5.2-2.2-9.2-6.1-6.4-11.4,2.1-3.8,5.5-5.8,11.5-4.9,8.4.6,12.8,10.4,7.4,14.3-.9.6-3.2,2.4-3.2,2.4,3.6-1.4,4.3-1.4,5.9.3s2.7,5.1,4.6,9.4c1.8,4,4.4,8.8,5.6,14.2,1,4.5-.7,6-6,7.9,0,0,1,1.4,3.9,1.9,5.1.9,9.4-.9,8-10.4-.3-1.8,1.6-2.5,2-.2,1.6,9.3-2.1,12.5-7.1,13Z"/><path class="cls-1" d="M219.1,67.1l-.1,5.7c-.1,0-2.7-2.7-2.7-2.7l2.8-3Z"/><path class="cls-1" d="M199,65.3l2.8,3.1-3,2.6Z"/></g><path class="cls-1" d="M198.1,215.9c-2.2-.1-2.5-1.9-2.7-3-.3-1.7,2.1-1.5,3.1-1.3a2.25,2.25,0,0,1,2,2.5C200.5,215.1,199.1,216,198.1,215.9Zm4.3,0c.6,0,1.5.5,1.1.6-.9.1-.4.6-1.1.5s-.1-.2-1.1-.5C200.9,216.4,201.8,215.9,202.4,215.9Zm0,2.9c-.6,0-1.3.5-1.3.3s.5-.6,1-.7a.1.1,0,0,0,.1-.1c0-.2.1-.6.2-.6s.1.5.2.7a.1.1,0,0,0,.1.1c.7.1,1,.5,1,.6,0,.3-.5-.3-1.3-.3Zm3.5-3.1c-1,0-2.1-.6-2.1-1.5a2.69,2.69,0,0,1,1.9-2.2c1.4-.3,2.8-.1,2.8.9a2.69,2.69,0,0,1-2.6,2.8Z"/><circle cx="198.7" cy="213.6" r="1.3"/><circle cx="206.2" cy="213.7" r="1.2"/><path d="M210.6,209a6.7,6.7,0,0,1,0-5.2c-.2-.7-3.7.1-5.6,1.9a26.14,26.14,0,0,0-7.4,0c-3.5-2.1-6.5-2-6.6-1.4.7,1.6.8,2.6-.6,4.4-1.1,1.4-.9,3.2-1,4.5-4.6-1.6-13.3-5.4-13.4-8.6-.1-3.4-.3-10-1.4-13.6a24.64,24.64,0,0,0-9-12.6,13.83,13.83,0,0,0-10.4-2.5c-3.5.6-3.1,5.4,0,5.3,8.8-.4,11.6,6.4,13.1,9.9,2.2,5.2.9,12.1.9,12.1-3.2,2.6-6.1,6-6.6,10.3a31.23,31.23,0,0,0,.7,11.3,43.56,43.56,0,0,1,1.4,9.1c.6,8.3-1.2,8.8.2,10.4a3.62,3.62,0,0,0,4.7.4,1.6,1.6,0,0,0,.6-2.2c-.2-.4-.9-1.1-1-1.6-.4-1.5.4-4.5.6-6,1-8.5,2-5.6,2-5.6.6,2.7-.1,6.4.4,10.4.2,1.9.9,3.5,2.7,3.9s3.4-.6,3.5-1.5a3.27,3.27,0,0,0-1.1-2.6c-2.3-3-1.4-5.7.4-8.2,0,1,4.1,5.1,6.1,5.8.4,6.8,1.7,13.2.9,17.3-.3,1.6-.7,3,2.3,3.7,1.9.4,5.4-1.4,4.6-3.2-.2-.5-1.3-1.1-1.5-1.7-2-4.9-.1-10.1,2.4-12.1.9-.8,1.5-.4,1.7,1,0,3.2,1.8,6.9,1.9,9.8,0,2,.1,4.2,3.2,4.5,1.7.2,2.6-.5,3-2.3s-3.3-4.8-2.6-10.1c1.3-10.4,8.6-8.1,6.3-19.8,3.1-1.5,6-4.7,6.4-5.9.7-3.3.5-2.3-1.8-9.3Zm-12.5,6.9c-2.2-.1-2.5-1.9-2.7-3-.3-1.7,2.1-1.5,3.1-1.3a2.25,2.25,0,0,1,2,2.5C200.5,215.1,199.1,216,198.1,215.9Zm4.3,0c.6,0,1.5.5,1.1.6-.9.1-.4.6-1.1.5s-.1-.2-1.1-.5C200.9,216.4,201.8,215.9,202.4,215.9Zm0,2.9c-.6,0-1.3.5-1.3.3s.5-.6,1-.7a.1.1,0,0,0,.1-.1c0-.2.1-.6.2-.6s.1.5.2.7a.1.1,0,0,0,.1.1c.7.1,1,.5,1,.6,0,.3-.5-.3-1.3-.3Zm3.5-3.1c-1,0-2.1-.6-2.1-1.5a2.69,2.69,0,0,1,1.9-2.2c1.4-.3,2.8-.1,2.8.9a2.69,2.69,0,0,1-2.6,2.8Z"/></svg>