<?xml version="1.0" encoding="UTF-8"?>
<svg id="LEARNING_AND-SHARING" xmlns="http://www.w3.org/2000/svg" viewBox="0 0 100 100">
  <defs>
    <style>
      .cls-1, .cls-2, .cls-3, .cls-4 {
        stroke-width: 0px;
      }

      .cls-2 {
        fill: #f1f5f9;
      }

      .cls-3 {
        fill: #003ffc;
      }

      .cls-4 {
        fill: #f63;
      }
    </style>
  </defs>
  <path class="cls-1" d="m64.31,27.48c-5.43,0-10.42,1.92-14.31,5.13-3.89-3.2-8.88-5.13-14.31-5.13-12.44,0-22.52,10.08-22.52,22.52s10.08,22.52,22.52,22.52c5.43,0,10.42-1.92,14.31-5.13,3.89,3.2,8.88,5.13,14.31,5.13,12.44,0,22.52-10.08,22.52-22.52s-10.08-22.52-22.52-22.52Zm-14.31,35.76c-3.22-3.48-5.21-8.13-5.21-13.24s1.99-9.75,5.21-13.24c3.22,3.48,5.21,8.13,5.21,13.24s-1.99,9.75-5.21,13.24Zm-33.83-13.24c0-10.77,8.76-19.52,19.52-19.52,4.57,0,8.76,1.59,12.09,4.23-3.72,4.02-6,9.39-6,15.3s2.28,11.28,6,15.3c-3.33,2.64-7.53,4.23-12.09,4.23-10.77,0-19.52-8.76-19.52-19.52Zm48.14,19.52c-4.57,0-8.76-1.59-12.09-4.23,3.72-4.02,6-9.39,6-15.3s-2.28-11.28-6-15.3c3.33-2.64,7.53-4.23,12.09-4.23,10.77,0,19.52,8.76,19.52,19.52s-8.76,19.52-19.52,19.52Z"/>
  <path class="cls-4" d="m16.17,50c0-10.77,8.76-19.52,19.52-19.52,4.57,0,8.76,1.59,12.09,4.23-3.72,4.02-6,9.39-6,15.3s2.28,11.28,6,15.3c-3.33,2.64-7.53,4.23-12.09,4.23-10.77,0-19.52-8.76-19.52-19.52Z"/>
  <path class="cls-3" d="m64.31,69.52c-4.57,0-8.76-1.59-12.09-4.23,3.72-4.02,6-9.39,6-15.3s-2.28-11.28-6-15.3c3.33-2.64,7.53-4.23,12.09-4.23,10.77,0,19.52,8.76,19.52,19.52s-8.76,19.52-19.52,19.52Z"/>
  <path class="cls-2" d="m50,63.24c-3.22-3.48-5.21-8.13-5.21-13.24s1.99-9.75,5.21-13.24c3.22,3.48,5.21,8.13,5.21,13.24s-1.99,9.75-5.21,13.24Z"/>
  <rect class="cls-1" x="45.8" y="47.09" width="4.58" height="2.12" rx="1.06" ry="1.06"/>
  <rect class="cls-1" x="45.8" y="50.82" width="8.1" height="2.12" rx="1.06" ry="1.06"/>
  <rect class="cls-1" x="46.79" y="54.55" width="6.13" height="2.12" rx="1.06" ry="1.06"/>
  <rect class="cls-1" x="48.73" y="58.29" width="2.25" height="2.12" rx="1.06" ry="1.06"/>
  <rect class="cls-1" x="46.82" y="43.36" width="6.07" height="2.12" rx="1.06" ry="1.06"/>
  <rect class="cls-1" x="48.73" y="39.63" width="2.25" height="2.12" rx="1.06" ry="1.06"/>
  <rect class="cls-1" x="51.65" y="47.09" width="2.25" height="2.12" rx="1.06" ry="1.06"/>
</svg>