<?xml version="1.0" encoding="utf-8"?>
<svg version="1.1" baseProfile="basic" id="logo" xmlns="http://www.w3.org/2000/svg" xmlns:xlink="http://www.w3.org/1999/xlink"
     x="0px" y="0px" viewBox="0 0 48.6 60" xml:space="preserve">
<path fill="#FF6633" d="M48.6,35.7C48.6,49.1,37.7,60,24.3,60C10.9,60,0,49.1,0,35.7c0-0.2,0-0.4,0-0.6C0.3,18,12.4,3.4,29.2,0
	c0,4.6,1.7,9,4.8,12.4c1.4-1.3,3.1-2,5-1.9c0.3,0,0.7,0,1,0.1c-0.4,0.9-0.6,1.9-0.6,2.9c0,1.2,0.3,2.3,0.8,3.3
	c0.3,0.6,0.7,1.2,1.2,1.7c0.1,0.1,0.2,0.2,0.3,0.3c1.1,1.1,2.1,2.3,3,3.6C47.3,26.3,48.6,31,48.6,35.7z"/>
    <circle cx="31.5" cy="42.7" r="7.2"/>
</svg>
