<?xml version="1.0" encoding="UTF-8"?>
<svg id="Layer_1" data-name="Layer 1" xmlns="http://www.w3.org/2000/svg" viewBox="0 0 247.55 115.13">
  <defs>
    <style>
      .cls-1 {
        stroke-width: 0px;
      }
    </style>
  </defs>
  <g id="PLANET">
    <g id="LEFT_CRATER">
      <path class="cls-1" d="m52.64,45.9c-1.81-2.24-7.05,1.35-12.65,6.63-5.6,5.28-9.23,10.8-7.25,12.9s8.44-.42,14.03-5.7c5.6-5.28,7.4-11.93,5.86-13.82Zm-9.7,11.71c-2.27,2.14-4.62,3.76-5.09,2.91-.21-.38,1.35-2.69,3.61-4.83s4.37-3.28,4.6-2.91c.5.81-.86,2.69-3.12,4.83Z"/>
      <g>
        <path class="cls-1" d="m41.53,69.21c-.59.19-.87.92-.63,1.43.19.42.49.81,1.55.43,3.37-1.22,9.04-6.52,9.12-6.61.72-.8.6-1.34.17-1.76-.15-.15-.78-.41-1.53.35-.26.27-5.46,5.11-8.69,6.16Z"/>
        <path class="cls-1" d="m36.57,71.2c-3.76,1.4-6.6-.79-7.65-1.52-.26-.18-1.13-1.06-1.92-.27-.3.3,0,.7.26,1.35.49,1.24,4.9,4.1,9.37,2.37.28-.11,1.07-.4,1.07-1.22s-.78-.83-1.12-.7Z"/>
        <path class="cls-1" d="m38.86,47.61c-.35-.59-1.01-.47-1.55-.18-3.6,1.58-11.38,12.84-11.14,17.28.03.62.34,1.36.96,1.45s1.39-.22,1.51-1.24c.77-6.71,6.68-13.21,9.93-16.03.32-.28.47-.99.3-1.28Z"/>
        <path class="cls-1" d="m42.5,44.2s0,.01.01.02c.26.42.88.68,1.26.36,3.7-3.12,8.53-3.09,9.65-3.11.89-.02,1.79.02,1.91-.14.45-.63.05-1.47-.72-1.57-3.59-.45-8.16.52-11.73,3.04-.47.33-.69.92-.38,1.41Z"/>
        <path class="cls-1" d="m59.04,48.99c-.12.41.22.73.42.79.29.08.85.13,1.11-.64.75-2.24-.13-4.92-1.02-5.53-.52-.36-1.33-.15-1.16.73.07.36.4,1.01.45,1.12.52,1.2.59,2.18.2,3.52Z"/>
        <path class="cls-1" d="m58.97,55.01c.11-.22.23-.43.34-.64.17-.33.2-.75,0-1.07-.33-.51-.78-.68-1.2-.53-.3.1-1.04,1.41-1.28,1.8-.53.88,1.15,2.49,2.15.44Z"/>
      </g>
    </g>
    <path class="cls-1" d="m247.41,100.52c-8.44-43.26-38.4-80.75-79.69-93.49-33.82-10.43-65.7-8.82-91.31,1.87C35.58,25.95,5.62,63.88.1,109.4c-.76,6.32,3.09,7.72,3.5,2.66C8.21,67.37,36.59,30.62,76.47,15.14c29.29-11.37,60.21-11.77,90.61-1.62,39.54,13.2,69.2,47.91,76.49,90.55.74,5.47,4.77,2.44,3.84-3.55Z"/>
    <g id="CENTER_CRATER">
      <path class="cls-1" d="m121.43,96.8c-.91-3.79-5.9-6.54-10.68-4.69-3.91,1.52-7.15,5.58-7.37,9.04-.25,3.89,5.69,5.89,10.68,4.69s8.28-5.25,7.37-9.04Zm-8.69-2.09c.59-1.45,6.03-1.55,6.35,2.63.15,1.94-.9,2.57-.9,1.1,0-.77.09-2.2-1.12-3.03-2.7-1.85-4.59-.07-4.34-.7Zm-2.74,2.41c-.23-1.69,5.97-2.81,6.58,2.49.22,1.93-1.37,2.51-1.37,1.04,0-.77.09-2.2-1.12-3.03-2.7-1.85-4,.17-4.09-.5Zm2.15,3.85c-.65,0-1.17-.47-1.17-1.06s.53-1.06,1.17-1.06,1.17.47,1.17,1.06-.53,1.06-1.17,1.06Z"/>
      <path class="cls-1" d="m103.1,91.81c1.43-3.06,8.29-6.71,13.53-5.06.81.26,1.42-.73,1.23-1.38-.15-.52-.44-.83-1.99-.98-5.85-.56-10.87,1.4-14.23,5.41-.84,1-1.17,1.29-.7,1.89.17.22,1.62,1.27,2.16.11Z"/>
      <path class="cls-1" d="m125.89,89.48c-.61-.19-1.32.25-.89,1.04.17.32.68.85.76.94.85,1,1.21,1.91,1.23,3.31,0,.43.43.64.64.63.3,0,.85-.13.87-.94.06-2.36-1.58-4.66-2.6-4.99Z"/>
      <path class="cls-1" d="m105.65,109.7c-4.01.1-5.98-2.9-6.74-3.93-.19-.26-.72-1.37-1.72-.88-.38.19-.43.66-.25,1.36.33,1.29,3.35,5.47,8.14,5.29.3-.01,1.14-.03,1.41-.81.26-.76-.47-1.04-.83-1.03Z"/>
      <path class="cls-1" d="m123.23,106.22c-3.11,3.93-6.56,4.31-7.49,4.41-.34.03-1.67-.15-1.84,1.02-.06.44.38.79,1.08.85,1.28.11,6.7-.3,9.4-4.8.17-.29.56-1.29.03-1.92-.51-.62-.94.13-1.19.45Z"/>
      <path class="cls-1" d="m93.69,99.96c.38-.37-.24-1.13-.76-1.28-.42-.12-.65-.05-1.15.8-1.78,3.01-1.36,6.72,1.02,10.64.53.86.71,1.21,1.26,1.17.2-.01,1.14-.43.54-1.24-1.73-2.32-3.15-7.87-.91-10.08Z"/>
      <path class="cls-1" d="m126.23,110.89c-.5.16-.29,1.12.1,1.49.32.3.56.34,1.38-.19,2.95-1.88,4.25-5.38,3.9-9.95-.08-1.01-.09-1.4-.59-1.61-.18-.08-1.21-.13-1.04.87.49,2.85-.75,8.44-3.75,9.4Z"/>
    </g>
    <g id="RIGHT_CRATER">
      <path class="cls-1" d="m201.12,53.15s0,.01,0,.02c.24.4.93.84,1.3.53,3.88-3.16,9.37-1.73,10.56-1.54.95.15,1.91.35,2.05.23.55-.45.22-1.22-.59-1.44-3.79-1.04-8.69-1.42-12.78,1.1-.49.3-.84.64-.56,1.11Z"/>
      <path class="cls-1" d="m204.41,74.31c-.18-.59-1.09-.64-1.54-.29-.36.28-.61.62-.06,1.61,1.73,3.18,5.11,5.52,9.4,7.11,1.01.37,1.44.28,1.75-.23.11-.18.34-1.13-.69-1.41-2.52-.69-7.91-3.68-8.87-6.79Z"/>
      <path class="cls-1" d="m228.66,73.23c.39,4-2.46,6.17-3.43,7.01-.24.21-1.32.82-.75,1.78.21.37.9.48,1.39.27.98-.41,5.2-3.87,4.67-8.63-.03-.3-.11-1.14-.91-1.35s-1,.54-.97.9Z"/>
      <path class="cls-1" d="m199.27,58.29c.22-.21-.07-.51-.25-.6-.26-.13-.79-.31-1.19.09-1.16,1.18-.83,3.08-.1,3.7.43.37,1.25.45,1.26-.14,0-.24-.59-2.23.28-3.05Z"/>
      <path class="cls-1" d="m193.89,66.13c-2.66-3.01-1.64-6.44-1.34-7.69.07-.31.58-1.44-.44-1.89-.39-.17-.65.26-1.16.73-.99.9-2.06,6.05,1.16,9.59.2.22.76.85,1.52.56s.49-1.03.25-1.3Z"/>
      <path class="cls-1" d="m221.39,60.92c-5.18-5.82-11.78-7.19-15.94-4.7-5.02,3-3.83,10.53,2.8,16.38,5.7,5.03,12.31,7.3,15.94,4.7,3.95-2.83,2.38-10.56-2.8-16.38Zm-9.12,9.44c-.45.29-1.12.03-1.51-.57-.39-.6-.34-1.32.11-1.61.45-.29,1.12-.03,1.51.57.39.6.34,1.32-.11,1.61Zm3.17-.51c0-.77-.61-2.32-1.81-3.15-2.7-1.85-4.34-.88-4.06-1.49.55-1.19,5.95-.52,6.83,3.58.46,2.16-.96,2.53-.96,1.06Zm7.33,2.85c-1.09,3.73-7.79,2.81-5.18,1.83,1.3-.49,6.18-1.73,2.19-8.44-3.64-6.13-10.87-7.22-9.68-7.49,5.21-1.18,14.72,7.05,12.67,14.1Z"/>
    </g>
    <g>
      <path class="cls-1" d="m16.44,91.84c-.42-5.68.63-8.04,3.24-11.76.44-.63-1.17-.72-1.72-.17-2.5,2.51-3.73,7.32-3.28,11.67.17,1.6,1.88,1.95,1.76.27Z"/>
      <path class="cls-1" d="m20.64,90.19c-.06-2.19.19-3.08,1.3-4.1.57-.52-.95-1.09-1.59-.66-1.71,1.16-1.54,3.28-1.32,4,.47,1.54,1.63,1.38,1.61.76Z"/>
      <path class="cls-1" d="m52.94,105.37c2.36-4.56,3.7-6.3,7.57-8.53.67-.39-.63-1.53-1.29-1.14-2.57,1.53-6.5,4.95-7.67,8.66-.35,1.11.87,1.99,1.39,1Z"/>
      <path class="cls-1" d="m45.1,104.22c1.93-3.36,2.87-4.91,5.49-7.08.6-.49-.73-1.67-1.29-1.14-2.16,2.04-3.96,4.09-5.59,7.22-.54,1.03.84,1.97,1.39,1Z"/>
      <path class="cls-1" d="m63.06,103.18c2.59-2.88,3.84-4.2,6.86-5.77.69-.36-.36-1.79-1.03-1.39-2.55,1.54-4.74,3.17-6.98,5.88-.74.9.4,2.1,1.15,1.27Z"/>
      <path class="cls-1" d="m78.88,97.35c1.25-1.49,2.21-2.73,3.87-3.66.68-.38-.4-1.84-1.03-1.39-2.13,1.54-2.85,2.34-3.99,3.77-.73.91.43,2.13,1.15,1.27Z"/>
      <path class="cls-1" d="m39.81,75.15c-3.48,1.71-5.12,2.47-8.51,2.81-.77.08-.33,1.79.44,1.67,2.94-.49,5.58-1.18,8.67-2.87,1.02-.56.41-2.1-.59-1.61Z"/>
      <path class="cls-1" d="m193.42,96.22c1.25-1.49,2.21-2.73,3.87-3.66.68-.38-.4-1.84-1.03-1.39-2.13,1.54-2.85,2.34-3.99,3.77-.73.91.43,2.13,1.15,1.27Z"/>
      <path class="cls-1" d="m216.7,101.66c1.36-1.44,1.41-1.69,2.74-2.96.94-.89-.09-2.3-1.03-1.39-1.07,1.04-2.08,1.97-2.87,3.07-.68.95.38,2.09,1.15,1.27Z"/>
      <path class="cls-1" d="m202.44,101.66c.84-.94,1.39-1.58,1.7-1.94.96-1.13-.08-2.29-1.03-1.39-.67.64-1,.97-1.82,2.05-.7.93.4,2.11,1.15,1.27Z"/>
      <path class="cls-1" d="m208.35,97.98c.84-.94,1.39-1.58,1.7-1.94.96-1.13-.08-2.29-1.03-1.39-.67.64-1,.97-1.82,2.05-.7.93.4,2.11,1.15,1.27Z"/>
      <path class="cls-1" d="m154.18,39.84c1.25-1.49,2.21-2.73,3.87-3.66.68-.38-.4-1.84-1.03-1.39-2.13,1.54-2.85,2.34-3.99,3.77-.73.91.43,2.13,1.15,1.27Z"/>
      <path class="cls-1" d="m155.42,32.85c2.59-2.88,3.84-4.2,6.86-5.77.69-.36-.36-1.79-1.03-1.39-2.55,1.54-4.74,3.17-6.98,5.88-.74.9.4,2.1,1.15,1.27Z"/>
      <path class="cls-1" d="m77.32,37.81c1.25-1.49,2.21-2.73,3.87-3.66.68-.38-.4-1.84-1.03-1.39-2.13,1.54-2.85,2.34-3.99,3.77-.73.91.43,2.13,1.15,1.27Z"/>
      <path class="cls-1" d="m81.97,26.67c2.59-2.88,3.84-4.2,6.86-5.77.69-.36-.36-1.79-1.03-1.39-2.55,1.54-4.74,3.17-6.98,5.88-.74.9.4,2.1,1.15,1.27Z"/>
      <path class="cls-1" d="m65.66,35.73c2.59-2.88,3.84-4.2,6.86-5.77.69-.36-.36-1.79-1.03-1.39-2.55,1.54-4.74,3.17-6.98,5.88-.74.9.4,2.1,1.15,1.27Z"/>
      <path class="cls-1" d="m155.87,50.38c2.59-2.88,3.84-4.2,6.86-5.77.69-.36-.36-1.79-1.03-1.39-2.55,1.54-4.74,3.17-6.98,5.88-.74.9.4,2.1,1.15,1.27Z"/>
    </g>
  </g>
  <g id="RIGHT_CRATER-2" data-name="RIGHT_CRATER">
    <path class="cls-1" d="m98.46,27s.01,0,.02,0c.45.13,1.25-.04,1.31-.52.61-4.96,5.57-7.73,6.56-8.42.79-.55,1.62-1.07,1.64-1.25.08-.7-.69-1.03-1.42-.63-3.45,1.87-7.26,4.99-8.47,9.64-.14.56-.16,1.04.36,1.19Z"/>
    <path class="cls-1" d="m119.18,40.55c-.54-.3-1.23.29-1.31.85-.07.45-.01.86,1.07,1.21,3.45,1.1,7.51.45,11.71-1.37.99-.43,1.24-.79,1.11-1.38-.05-.21-.54-1.05-1.47-.55-2.29,1.25-8.26,2.82-11.1,1.24Z"/>
    <path class="cls-1" d="m137.85,23.15c3.05,2.62,2.5,6.16,2.37,7.43-.03.32-.38,1.5.69,1.81.41.12.98-.28,1.19-.76.43-.98,1.08-6.39-2.6-9.46-.23-.19-.87-.74-1.59-.34s-.35,1.08-.07,1.32Z"/>
    <path class="cls-1" d="m104.39,32.54c.01-.3-.41-.32-.6-.26-.28.09-.79.33-.79.89-.02,1.65,1.53,2.8,2.49,2.74.56-.03,1.22-.54.81-.97-.16-.17-1.97-1.2-1.91-2.4Z"/>
    <path class="cls-1" d="m105.93,41.93c-4-.33-5.64-3.52-6.29-4.62-.16-.28-.57-1.44-1.62-1.06-.4.14-.29.63-.34,1.33-.09,1.33,2.7,5.8,7.48,6.12.3.02,1.14.09,1.49-.65s-.35-1.08-.72-1.11Z"/>
    <path class="cls-1" d="m121.43,18.38c-7.76-.62-13.48,2.96-14.76,7.64-1.54,5.64,4.52,10.25,13.36,9.89,7.59-.31,13.94-3.25,14.76-7.64.9-4.77-5.59-9.27-13.36-9.89Zm1.89,10.57c-.53-.56-2.05-1.26-3.49-1.02-3.23.53-3.75,2.37-3.97,1.73-.43-1.24,3.94-4.49,7.41-2.14,1.83,1.24,1.06,2.49.04,1.42Zm7.26-3.01c1.8,3.45-3.68,7.41-2.47,4.91.6-1.25,3.26-5.53-4.26-7.61-6.87-1.91-12.84,2.31-12.17,1.29,2.95-4.46,15.5-5.09,18.9,1.42Z"/>
  </g>
</svg>